<svg width="247" height="436" viewBox="0 0 247 436" fill="none" xmlns="http://www.w3.org/2000/svg">
<g clip-path="url(#clip0_463_2557)">
<rect width="247" height="436" rx="123.5" fill="url(#paint0_linear_463_2557)"/>
<mask id="mask0_463_2557" style="mask-type:alpha" maskUnits="userSpaceOnUse" x="64" y="-7" width="125" height="167">
<rect x="64" y="-7" width="125" height="167" fill="url(#paint1_linear_463_2557)"/>
</mask>
<g mask="url(#mask0_463_2557)">
<g filter="url(#filter0_d_463_2557)">
<rect x="70" y="-7" width="108" height="131" rx="8" fill="#2D3047" shape-rendering="crispEdges"/>
<rect x="71" y="-6" width="106" height="129" rx="7" stroke="#57596C" stroke-width="2" shape-rendering="crispEdges"/>
<rect x="76" y="6" width="89" height="7" rx="3.5" fill="url(#paint2_linear_463_2557)"/>
<rect x="78" y="37" width="88" height="5.25" rx="2.625" fill="url(#paint3_linear_463_2557)"/>
<rect x="78" y="44.5" width="75" height="5.25" rx="2.625" fill="url(#paint4_linear_463_2557)"/>
<rect x="78" y="52" width="69" height="5.25" rx="2.625" fill="url(#paint5_linear_463_2557)"/>
<rect x="78" y="61" width="71" height="5.25" rx="2.625" fill="url(#paint6_linear_463_2557)"/>
<rect x="78" y="68.5" width="65" height="5.25" rx="2.625" fill="url(#paint7_linear_463_2557)"/>
<rect x="78" y="76" width="57" height="5.25" rx="2.625" fill="url(#paint8_linear_463_2557)"/>
<rect x="78" y="85" width="81" height="5.25" rx="2.625" fill="url(#paint9_linear_463_2557)"/>
<rect x="78" y="92.5" width="61" height="5.25" rx="2.625" fill="url(#paint10_linear_463_2557)"/>
<rect x="78" y="100" width="62" height="5.25" rx="2.625" fill="url(#paint11_linear_463_2557)"/>
<path d="M123 124V149" stroke="#313333" stroke-width="3" stroke-dasharray="6 6"/>
</g>
</g>
<g filter="url(#filter1_d_463_2557)">
<rect x="70" y="149" width="108" height="131" rx="8" fill="#2D3047" shape-rendering="crispEdges"/>
<rect x="71" y="150" width="106" height="129" rx="7" stroke="#57596C" stroke-width="2" shape-rendering="crispEdges"/>
<rect x="76" y="162" width="89" height="7" rx="3.5" fill="url(#paint12_linear_463_2557)"/>
<rect x="78" y="193" width="88" height="5.25" rx="2.625" fill="url(#paint13_linear_463_2557)"/>
<rect x="78" y="200.5" width="75" height="5.25" rx="2.625" fill="url(#paint14_linear_463_2557)"/>
<rect x="78" y="208" width="69" height="5.25" rx="2.625" fill="url(#paint15_linear_463_2557)"/>
<rect x="78" y="217" width="71" height="5.25" rx="2.625" fill="url(#paint16_linear_463_2557)"/>
<rect x="78" y="224.5" width="65" height="5.25" rx="2.625" fill="url(#paint17_linear_463_2557)"/>
<rect x="78" y="232" width="57" height="5.25" rx="2.625" fill="url(#paint18_linear_463_2557)"/>
<rect x="78" y="241" width="81" height="5.25" rx="2.625" fill="url(#paint19_linear_463_2557)"/>
<rect x="78" y="248.5" width="61" height="5.25" rx="2.625" fill="url(#paint20_linear_463_2557)"/>
<rect x="78" y="256" width="62" height="5.25" rx="2.625" fill="url(#paint21_linear_463_2557)"/>
</g>
<mask id="mask1_463_2557" style="mask-type:alpha" maskUnits="userSpaceOnUse" x="64" y="278" width="114" height="158">
<rect x="64" y="278" width="114" height="158" fill="url(#paint22_linear_463_2557)"/>
</mask>
<g mask="url(#mask1_463_2557)">
<rect x="71" y="306" width="106" height="129" rx="7" fill="#2D3047"/>
<rect x="71" y="306" width="106" height="129" rx="7" stroke="#57596C" stroke-width="2"/>
<rect x="76" y="318" width="89" height="7" rx="3.5" fill="url(#paint23_linear_463_2557)"/>
<rect x="78" y="349" width="88" height="5.25" rx="2.625" fill="url(#paint24_linear_463_2557)"/>
<rect x="78" y="356.5" width="75" height="5.25" rx="2.625" fill="url(#paint25_linear_463_2557)"/>
<rect x="78" y="364" width="69" height="5.25" rx="2.625" fill="url(#paint26_linear_463_2557)"/>
<rect x="78" y="373" width="71" height="5.25" rx="2.625" fill="url(#paint27_linear_463_2557)"/>
<rect x="78" y="380.5" width="65" height="5.25" rx="2.625" fill="url(#paint28_linear_463_2557)"/>
<rect x="78" y="388" width="57" height="5.25" rx="2.625" fill="url(#paint29_linear_463_2557)"/>
<rect x="78" y="397" width="81" height="5.25" rx="2.625" fill="url(#paint30_linear_463_2557)"/>
<rect x="78" y="404.5" width="61" height="5.25" rx="2.625" fill="url(#paint31_linear_463_2557)"/>
<rect x="78" y="412" width="62" height="5.25" rx="2.625" fill="url(#paint32_linear_463_2557)"/>
<path d="M121.5 279.5V304.5" stroke="#313333" stroke-width="3" stroke-dasharray="6 6"/>
</g>
</g>
<defs>
<filter id="filter0_d_463_2557" x="65" y="-7" width="352.5" height="167" filterUnits="userSpaceOnUse" color-interpolation-filters="sRGB">
<feFlood flood-opacity="0" result="BackgroundImageFix"/>
<feColorMatrix in="SourceAlpha" type="matrix" values="0 0 0 0 0 0 0 0 0 0 0 0 0 0 0 0 0 0 127 0" result="hardAlpha"/>
<feOffset dy="6"/>
<feGaussianBlur stdDeviation="2.5"/>
<feComposite in2="hardAlpha" operator="out"/>
<feColorMatrix type="matrix" values="0 0 0 0 0 0 0 0 0 0 0 0 0 0 0 0 0 0 0.25 0"/>
<feBlend mode="normal" in2="BackgroundImageFix" result="effect1_dropShadow_463_2557"/>
<feBlend mode="normal" in="SourceGraphic" in2="effect1_dropShadow_463_2557" result="shape"/>
</filter>
<filter id="filter1_d_463_2557" x="65" y="149" width="352.5" height="142" filterUnits="userSpaceOnUse" color-interpolation-filters="sRGB">
<feFlood flood-opacity="0" result="BackgroundImageFix"/>
<feColorMatrix in="SourceAlpha" type="matrix" values="0 0 0 0 0 0 0 0 0 0 0 0 0 0 0 0 0 0 127 0" result="hardAlpha"/>
<feOffset dy="6"/>
<feGaussianBlur stdDeviation="2.5"/>
<feComposite in2="hardAlpha" operator="out"/>
<feColorMatrix type="matrix" values="0 0 0 0 0 0 0 0 0 0 0 0 0 0 0 0 0 0 0.25 0"/>
<feBlend mode="normal" in2="BackgroundImageFix" result="effect1_dropShadow_463_2557"/>
<feBlend mode="normal" in="SourceGraphic" in2="effect1_dropShadow_463_2557" result="shape"/>
</filter>
<linearGradient id="paint0_linear_463_2557" x1="123.5" y1="0" x2="123.5" y2="436" gradientUnits="userSpaceOnUse">
<stop stop-color="#CEFFB3"/>
<stop offset="1" stop-color="#6D7979"/>
</linearGradient>
<linearGradient id="paint1_linear_463_2557" x1="126.5" y1="-7" x2="126.5" y2="160" gradientUnits="userSpaceOnUse">
<stop stop-color="white" stop-opacity="0.46"/>
<stop offset="0.772763" stop-color="#737373"/>
</linearGradient>
<linearGradient id="paint2_linear_463_2557" x1="165" y1="9.5614" x2="76" y2="9.56142" gradientUnits="userSpaceOnUse">
<stop stop-color="#DBDBDB" stop-opacity="0.05"/>
<stop offset="0.5" stop-color="#DBDBDB"/>
</linearGradient>
<linearGradient id="paint3_linear_463_2557" x1="166" y1="39.6711" x2="78" y2="39.6711" gradientUnits="userSpaceOnUse">
<stop stop-color="#DBDBDB" stop-opacity="0.05"/>
<stop offset="0.5" stop-color="#DBDBDB"/>
</linearGradient>
<linearGradient id="paint4_linear_463_2557" x1="153" y1="47.1711" x2="78" y2="47.1711" gradientUnits="userSpaceOnUse">
<stop stop-color="#DBDBDB" stop-opacity="0.05"/>
<stop offset="0.5" stop-color="#DBDBDB"/>
</linearGradient>
<linearGradient id="paint5_linear_463_2557" x1="147" y1="54.6711" x2="78" y2="54.6711" gradientUnits="userSpaceOnUse">
<stop stop-color="#DBDBDB" stop-opacity="0.05"/>
<stop offset="0.5" stop-color="#DBDBDB"/>
</linearGradient>
<linearGradient id="paint6_linear_463_2557" x1="149" y1="63.6711" x2="78" y2="63.6711" gradientUnits="userSpaceOnUse">
<stop stop-color="#DBDBDB" stop-opacity="0.05"/>
<stop offset="0.5" stop-color="#DBDBDB"/>
</linearGradient>
<linearGradient id="paint7_linear_463_2557" x1="143" y1="71.1711" x2="78" y2="71.1711" gradientUnits="userSpaceOnUse">
<stop stop-color="#DBDBDB" stop-opacity="0.05"/>
<stop offset="0.5" stop-color="#DBDBDB"/>
</linearGradient>
<linearGradient id="paint8_linear_463_2557" x1="135" y1="78.6711" x2="78" y2="78.6711" gradientUnits="userSpaceOnUse">
<stop stop-color="#DBDBDB" stop-opacity="0.05"/>
<stop offset="0.5" stop-color="#DBDBDB"/>
</linearGradient>
<linearGradient id="paint9_linear_463_2557" x1="159" y1="87.6711" x2="78" y2="87.6711" gradientUnits="userSpaceOnUse">
<stop stop-color="#DBDBDB" stop-opacity="0.05"/>
<stop offset="0.5" stop-color="#DBDBDB"/>
</linearGradient>
<linearGradient id="paint10_linear_463_2557" x1="139" y1="95.1711" x2="78" y2="95.1711" gradientUnits="userSpaceOnUse">
<stop stop-color="#DBDBDB" stop-opacity="0.05"/>
<stop offset="0.5" stop-color="#DBDBDB"/>
</linearGradient>
<linearGradient id="paint11_linear_463_2557" x1="140" y1="102.671" x2="78" y2="102.671" gradientUnits="userSpaceOnUse">
<stop stop-color="#DBDBDB" stop-opacity="0.05"/>
<stop offset="0.5" stop-color="#DBDBDB"/>
</linearGradient>
<linearGradient id="paint12_linear_463_2557" x1="165" y1="165.561" x2="76" y2="165.561" gradientUnits="userSpaceOnUse">
<stop stop-color="#DBDBDB" stop-opacity="0.05"/>
<stop offset="0.5" stop-color="#DBDBDB"/>
</linearGradient>
<linearGradient id="paint13_linear_463_2557" x1="166" y1="195.671" x2="78" y2="195.671" gradientUnits="userSpaceOnUse">
<stop stop-color="#DBDBDB" stop-opacity="0.05"/>
<stop offset="0.5" stop-color="#DBDBDB"/>
</linearGradient>
<linearGradient id="paint14_linear_463_2557" x1="153" y1="203.171" x2="78" y2="203.171" gradientUnits="userSpaceOnUse">
<stop stop-color="#DBDBDB" stop-opacity="0.05"/>
<stop offset="0.5" stop-color="#DBDBDB"/>
</linearGradient>
<linearGradient id="paint15_linear_463_2557" x1="147" y1="210.671" x2="78" y2="210.671" gradientUnits="userSpaceOnUse">
<stop stop-color="#DBDBDB" stop-opacity="0.05"/>
<stop offset="0.5" stop-color="#DBDBDB"/>
</linearGradient>
<linearGradient id="paint16_linear_463_2557" x1="149" y1="219.671" x2="78" y2="219.671" gradientUnits="userSpaceOnUse">
<stop stop-color="#DBDBDB" stop-opacity="0.05"/>
<stop offset="0.5" stop-color="#DBDBDB"/>
</linearGradient>
<linearGradient id="paint17_linear_463_2557" x1="143" y1="227.171" x2="78" y2="227.171" gradientUnits="userSpaceOnUse">
<stop stop-color="#DBDBDB" stop-opacity="0.05"/>
<stop offset="0.5" stop-color="#DBDBDB"/>
</linearGradient>
<linearGradient id="paint18_linear_463_2557" x1="135" y1="234.671" x2="78" y2="234.671" gradientUnits="userSpaceOnUse">
<stop stop-color="#DBDBDB" stop-opacity="0.05"/>
<stop offset="0.5" stop-color="#DBDBDB"/>
</linearGradient>
<linearGradient id="paint19_linear_463_2557" x1="159" y1="243.671" x2="78" y2="243.671" gradientUnits="userSpaceOnUse">
<stop stop-color="#DBDBDB" stop-opacity="0.05"/>
<stop offset="0.5" stop-color="#DBDBDB"/>
</linearGradient>
<linearGradient id="paint20_linear_463_2557" x1="139" y1="251.171" x2="78" y2="251.171" gradientUnits="userSpaceOnUse">
<stop stop-color="#DBDBDB" stop-opacity="0.05"/>
<stop offset="0.5" stop-color="#DBDBDB"/>
</linearGradient>
<linearGradient id="paint21_linear_463_2557" x1="140" y1="258.671" x2="78" y2="258.671" gradientUnits="userSpaceOnUse">
<stop stop-color="#DBDBDB" stop-opacity="0.05"/>
<stop offset="0.5" stop-color="#DBDBDB"/>
</linearGradient>
<linearGradient id="paint22_linear_463_2557" x1="121" y1="278" x2="121" y2="436" gradientUnits="userSpaceOnUse">
<stop stop-color="#D9D9D9"/>
<stop offset="0.847548" stop-color="#737373" stop-opacity="0.2"/>
</linearGradient>
<linearGradient id="paint23_linear_463_2557" x1="165" y1="321.561" x2="76" y2="321.561" gradientUnits="userSpaceOnUse">
<stop stop-color="#DBDBDB" stop-opacity="0.05"/>
<stop offset="0.5" stop-color="#DBDBDB"/>
</linearGradient>
<linearGradient id="paint24_linear_463_2557" x1="166" y1="351.671" x2="78" y2="351.671" gradientUnits="userSpaceOnUse">
<stop stop-color="#DBDBDB" stop-opacity="0.05"/>
<stop offset="0.5" stop-color="#DBDBDB"/>
</linearGradient>
<linearGradient id="paint25_linear_463_2557" x1="153" y1="359.171" x2="78" y2="359.171" gradientUnits="userSpaceOnUse">
<stop stop-color="#DBDBDB" stop-opacity="0.05"/>
<stop offset="0.5" stop-color="#DBDBDB"/>
</linearGradient>
<linearGradient id="paint26_linear_463_2557" x1="147" y1="366.671" x2="78" y2="366.671" gradientUnits="userSpaceOnUse">
<stop stop-color="#DBDBDB" stop-opacity="0.05"/>
<stop offset="0.5" stop-color="#DBDBDB"/>
</linearGradient>
<linearGradient id="paint27_linear_463_2557" x1="149" y1="375.671" x2="78" y2="375.671" gradientUnits="userSpaceOnUse">
<stop stop-color="#DBDBDB" stop-opacity="0.05"/>
<stop offset="0.5" stop-color="#DBDBDB"/>
</linearGradient>
<linearGradient id="paint28_linear_463_2557" x1="143" y1="383.171" x2="78" y2="383.171" gradientUnits="userSpaceOnUse">
<stop stop-color="#DBDBDB" stop-opacity="0.05"/>
<stop offset="0.5" stop-color="#DBDBDB"/>
</linearGradient>
<linearGradient id="paint29_linear_463_2557" x1="135" y1="390.671" x2="78" y2="390.671" gradientUnits="userSpaceOnUse">
<stop stop-color="#DBDBDB" stop-opacity="0.05"/>
<stop offset="0.5" stop-color="#DBDBDB"/>
</linearGradient>
<linearGradient id="paint30_linear_463_2557" x1="159" y1="399.671" x2="78" y2="399.671" gradientUnits="userSpaceOnUse">
<stop stop-color="#DBDBDB" stop-opacity="0.05"/>
<stop offset="0.5" stop-color="#DBDBDB"/>
</linearGradient>
<linearGradient id="paint31_linear_463_2557" x1="139" y1="407.171" x2="78" y2="407.171" gradientUnits="userSpaceOnUse">
<stop stop-color="#DBDBDB" stop-opacity="0.05"/>
<stop offset="0.5" stop-color="#DBDBDB"/>
</linearGradient>
<linearGradient id="paint32_linear_463_2557" x1="140" y1="414.671" x2="78" y2="414.671" gradientUnits="userSpaceOnUse">
<stop stop-color="#DBDBDB" stop-opacity="0.05"/>
<stop offset="0.5" stop-color="#DBDBDB"/>
</linearGradient>
<clipPath id="clip0_463_2557">
<rect width="247" height="436" rx="123.5" fill="white"/>
</clipPath>
</defs>
</svg>
