<svg width="247" height="436" viewBox="0 0 247 436" fill="none" xmlns="http://www.w3.org/2000/svg">
<rect width="247" height="436" rx="123.5" fill="url(#paint0_linear_826_4787)"/>
<g clip-path="url(#clip0_826_4787)">
<path d="M52.0143 194.047C52.3736 194.044 52.3736 194.044 52.7402 194.041C53.5289 194.035 54.3174 194.037 55.1061 194.039C55.6562 194.038 56.2064 194.036 56.7566 194.035C57.9085 194.032 59.0604 194.033 60.2124 194.037C61.6864 194.041 63.1603 194.035 64.6343 194.027C65.7701 194.022 66.9059 194.022 68.0418 194.024C68.5852 194.024 69.1285 194.023 69.6719 194.019C70.4326 194.015 71.1929 194.019 71.9536 194.024C72.288 194.02 72.288 194.02 72.6293 194.016C74.1162 194.037 75.1776 194.328 76.296 195.344C77.0136 196.38 77.0885 197.235 77.0938 198.479C77.0954 198.647 77.097 198.814 77.0987 198.986C77.1029 199.535 77.102 200.083 77.1007 200.632C77.1018 201.015 77.103 201.399 77.1044 201.782C77.1065 202.584 77.106 203.387 77.1036 204.189C77.1009 205.215 77.1057 206.241 77.1125 207.267C77.1168 208.058 77.1167 208.85 77.1154 209.641C77.1154 210.02 77.1168 210.398 77.1197 210.776C77.1232 211.306 77.1207 211.835 77.1167 212.364C77.1166 212.665 77.1166 212.966 77.1166 213.276C76.9328 214.555 76.3665 215.265 75.3585 216.042C74.3372 216.616 73.5749 216.698 72.4105 216.688C72.1576 216.691 71.9047 216.693 71.6442 216.696C71.1162 216.699 70.5882 216.698 70.0603 216.69C68.4482 216.717 67.5399 216.912 66.4005 218.079C66.2629 218.233 66.1252 218.388 65.9835 218.547C65.6999 218.84 65.4161 219.132 65.132 219.425C64.7178 219.861 64.3062 220.298 63.9006 220.742C63.7656 220.882 63.6305 221.023 63.4914 221.168C63.3732 221.295 63.2551 221.422 63.1333 221.553C62.4824 221.968 62.0523 221.937 61.296 221.828C60.7135 221.402 60.7135 221.402 60.1497 220.811C59.9449 220.601 59.74 220.39 59.529 220.173C59.3193 219.951 59.1096 219.728 58.8936 219.499C58.4729 219.062 58.0518 218.625 57.6302 218.189C57.4452 217.994 57.2602 217.799 57.0697 217.597C56.3387 216.873 55.8823 216.875 54.8781 216.857C54.6237 216.85 54.3693 216.843 54.1072 216.837C53.5732 216.825 53.0392 216.814 52.5051 216.806C49.1999 216.712 49.1999 216.712 48.0418 215.629C47.0951 214.528 46.9685 213.902 46.9576 212.474C46.9561 212.308 46.9545 212.141 46.9529 211.97C46.9483 211.417 46.9456 210.864 46.9432 210.312C46.9423 210.123 46.9413 209.934 46.9403 209.739C46.9354 208.739 46.9321 207.739 46.9299 206.738C46.9273 205.707 46.9193 204.676 46.9099 203.644C46.9038 202.85 46.9018 202.056 46.901 201.261C46.8999 200.881 46.8972 200.501 46.8928 200.121C46.8871 199.588 46.8873 199.054 46.8889 198.521C46.8876 198.218 46.8862 197.915 46.8848 197.603C47.074 196.192 47.5391 195.418 48.6632 194.546C49.7428 194.009 50.8304 194.039 52.0143 194.047Z" fill="#FF7E92" fill-opacity="0.6"/>
<path d="M60.3682 199.78C60.5056 199.868 60.6431 199.956 60.7847 200.046C61.4717 200.556 61.4717 200.556 62.1324 200.485C62.7303 200.272 62.7303 200.272 63.3482 199.899C64.649 199.324 65.7576 199.416 67.0982 199.841C68.2693 200.494 69.2184 201.359 69.7349 202.609C70.0805 204.679 69.5026 206.3 68.3287 208C66.7809 209.888 64.7287 211.941 62.4693 212.922C61.2613 212.906 60.5887 212.424 59.6568 211.691C59.5333 211.595 59.4098 211.498 59.2826 211.398C58.9374 211.126 58.5939 210.852 58.2506 210.578C58.1092 210.476 57.9678 210.374 57.8221 210.269C56.2423 209.097 54.8076 207.082 54.2662 205.188C54.0584 203.622 54.1489 202.422 55.0865 201.123C56.3793 199.695 58.5343 198.943 60.3682 199.78Z" fill="#FFFEFE" fill-opacity="0.6"/>
<path d="M47.7033 195.578C47.7807 195.578 47.858 195.578 47.9377 195.578C47.9385 195.798 47.9394 196.018 47.9403 196.245C47.9489 198.321 47.9625 200.397 47.9808 202.473C47.99 203.54 47.9976 204.607 48.0012 205.674C48.0048 206.705 48.0128 207.735 48.024 208.765C48.0275 209.158 48.0293 209.55 48.0295 209.943C48.0301 210.494 48.0364 211.045 48.0441 211.596C48.0429 211.757 48.0418 211.919 48.0406 212.085C48.0654 213.242 48.3862 213.906 49.1096 214.797C49.9473 215.272 50.6836 215.326 51.6364 215.338C51.8917 215.344 52.147 215.35 52.41 215.356C52.9441 215.364 53.4781 215.371 54.0122 215.378C54.2675 215.384 54.5228 215.39 54.7858 215.397C55.0177 215.4 55.2496 215.403 55.4885 215.406C56.845 215.601 57.679 216.501 58.6063 217.443C58.7243 217.561 58.8423 217.679 58.9639 217.801C59.2112 218.049 59.458 218.297 59.7042 218.546C60.0829 218.929 60.4635 219.31 60.8443 219.691C61.0848 219.933 61.3251 220.175 61.5653 220.416C61.6796 220.531 61.7938 220.645 61.9115 220.763C62.7033 221.567 62.7033 221.567 62.7033 221.828C61.8381 221.915 61.4284 221.924 60.7146 221.402C60.5285 221.207 60.3425 221.012 60.1508 220.811C59.946 220.601 59.7411 220.39 59.5301 220.173C59.3204 219.951 59.1108 219.728 58.8947 219.499C58.474 219.062 58.0529 218.625 57.6313 218.189C57.4463 217.994 57.2613 217.799 57.0708 217.598C56.3398 216.873 55.8834 216.875 54.8792 216.857C54.6248 216.85 54.3704 216.844 54.1083 216.837C53.5743 216.825 53.0403 216.814 52.5062 216.806C49.201 216.712 49.201 216.712 48.0429 215.629C47.0932 214.525 46.97 213.899 46.9624 212.467C46.9613 212.3 46.9601 212.132 46.9589 211.96C46.9555 211.405 46.9539 210.85 46.9526 210.295C46.9512 209.91 46.9499 209.524 46.9485 209.139C46.9461 208.33 46.9447 207.522 46.9439 206.713C46.9426 205.677 46.937 204.642 46.9303 203.606C46.9259 202.81 46.9247 202.013 46.9244 201.217C46.9236 200.835 46.9218 200.453 46.9187 200.072C46.9147 199.537 46.9151 199.002 46.9167 198.468C46.9158 198.164 46.9149 197.86 46.9141 197.546C47.0055 196.701 47.1953 196.252 47.7033 195.578Z" fill="#FF5F79" fill-opacity="0.6"/>
<path d="M56.843 199.797C56.9977 199.874 57.1524 199.952 57.3117 200.031C57.1341 200.156 57.1341 200.156 56.9529 200.283C56.1924 200.906 55.7371 201.385 55.5127 202.36C55.4161 204.657 56.1503 206.419 57.6102 208.17C58.7201 209.329 59.9138 210.269 61.2476 211.155C61.8961 211.607 62.4063 212.104 62.9367 212.688C62.0184 212.954 61.6471 212.983 60.7843 212.533C60.5269 212.35 60.2727 212.162 60.0217 211.97C59.8878 211.871 59.7539 211.773 59.616 211.672C59.2354 211.389 58.8593 211.101 58.4836 210.813C58.3199 210.693 58.1561 210.573 57.9874 210.449C56.221 209.069 54.4845 206.842 54.1843 204.581C54.1089 203.207 54.2757 202.249 55.0824 201.123C55.612 200.542 56.1572 200.18 56.843 199.797Z" fill="#FFD9DD" fill-opacity="0.6"/>
</g>
<rect x="53" y="225" width="88" height="5.25" rx="2.625" fill="url(#paint1_linear_826_4787)"/>
<rect x="53" y="232.5" width="75" height="5.25" rx="2.625" fill="url(#paint2_linear_826_4787)"/>
<rect x="53" y="240" width="69" height="5.25" rx="2.625" fill="url(#paint3_linear_826_4787)"/>
<rect x="53" y="249" width="71" height="5.25" rx="2.625" fill="url(#paint4_linear_826_4787)"/>
<rect x="53" y="256.5" width="65" height="5.25" rx="2.625" fill="url(#paint5_linear_826_4787)"/>
<rect x="53" y="264" width="57" height="5.25" rx="2.625" fill="url(#paint6_linear_826_4787)"/>
<rect x="53" y="273" width="81" height="5.25" rx="2.625" fill="url(#paint7_linear_826_4787)"/>
<rect x="53" y="280.5" width="61" height="5.25" rx="2.625" fill="url(#paint8_linear_826_4787)"/>
<rect x="53" y="288" width="62" height="5.25" rx="2.625" fill="url(#paint9_linear_826_4787)"/>
<rect x="62" y="342" width="88" height="5.25" rx="2.625" fill="url(#paint10_linear_826_4787)"/>
<rect x="62" y="349.5" width="75" height="5.25" rx="2.625" fill="url(#paint11_linear_826_4787)"/>
<rect x="62" y="357" width="69" height="5.25" rx="2.625" fill="url(#paint12_linear_826_4787)"/>
<rect x="62" y="366" width="71" height="5.25" rx="2.625" fill="url(#paint13_linear_826_4787)"/>
<rect x="62" y="373.5" width="65" height="5.25" rx="2.625" fill="url(#paint14_linear_826_4787)"/>
<rect x="62" y="381" width="57" height="5.25" rx="2.625" fill="url(#paint15_linear_826_4787)"/>
<rect x="62" y="390" width="81" height="5.25" rx="2.625" fill="url(#paint16_linear_826_4787)"/>
<rect x="62" y="397.5" width="61" height="5.25" rx="2.625" fill="url(#paint17_linear_826_4787)"/>
<rect x="62" y="405" width="62" height="5.25" rx="2.625" fill="url(#paint18_linear_826_4787)"/>
<rect x="111" y="203" width="89" height="7" rx="3.5" fill="url(#paint19_linear_826_4787)"/>
<rect x="111" y="300" width="89" height="7" rx="3.5" fill="url(#paint20_linear_826_4787)"/>
<rect x="111" y="313" width="89" height="7" rx="3.5" fill="url(#paint21_linear_826_4787)"/>
<g clip-path="url(#clip1_826_4787)">
<path d="M205.156 264.703C205.365 264.79 205.365 264.79 205.578 264.879C209.841 266.692 212.342 269.425 214.287 273.633C215.415 276.768 215.624 281.066 214.297 284.156C214.21 284.365 214.21 284.365 214.121 284.578C212.308 288.841 209.575 291.342 205.367 293.287C202.231 294.415 197.934 294.624 194.843 293.297C194.704 293.239 194.565 293.181 194.421 293.121C190.159 291.308 187.658 288.575 185.713 284.367C184.585 281.232 184.375 276.934 185.703 273.844C185.761 273.704 185.819 273.565 185.879 273.422C187.691 269.159 190.424 266.658 194.633 264.713C197.768 263.585 202.066 263.376 205.156 264.703Z" fill="#FDCC00" fill-opacity="0.6"/>
<path d="M205.156 264.703C205.365 264.79 205.365 264.79 205.578 264.879C209.841 266.692 212.342 269.425 214.287 273.633C215.415 276.768 215.624 281.066 214.297 284.156C214.21 284.365 214.21 284.365 214.121 284.578C212.308 288.841 209.575 291.342 205.367 293.287C202.231 294.415 197.934 294.624 194.843 293.297C194.704 293.239 194.565 293.181 194.421 293.121C190.159 291.308 187.658 288.575 185.713 284.367C184.585 281.232 184.375 276.934 185.703 273.844C185.761 273.704 185.819 273.565 185.879 273.422C187.691 269.159 190.424 266.658 194.633 264.713C197.768 263.585 202.066 263.376 205.156 264.703ZM189.762 270.19C187.354 273.095 186.389 276.635 186.587 280.359C186.946 283.846 188.808 286.948 191.328 289.312C194.299 291.637 197.677 292.62 201.406 292.359C205.332 291.78 208.582 289.993 210.971 286.778C213.033 283.643 213.903 279.987 213.198 276.276C212.246 272.653 210.346 269.717 207.188 267.64C201.368 264.3 194.335 265.2 189.762 270.19Z" fill="#020200" fill-opacity="0.6"/>
<path d="M194.609 279C195.595 279.194 195.956 279.6 196.616 280.362C196.795 280.567 196.974 280.771 197.159 280.982C197.656 281.578 197.656 281.578 197.964 282.116C198.481 282.639 198.897 282.615 199.611 282.621C199.854 282.62 199.854 282.62 200.102 282.618C203.158 282.715 205.129 283.862 207.265 286.031C207.149 286.379 207.149 286.379 207.031 286.734C206.43 287.013 206.43 287.013 205.859 287.203C205.751 287.096 205.643 286.988 205.531 286.877C203.595 285.056 201.69 284.491 199.062 284.391C199.099 284.797 199.099 284.797 199.136 285.211C199.129 286.425 198.701 287.25 197.89 288.141C196.779 289.018 195.612 289.232 194.216 289.168C192.765 288.929 191.924 287.849 191.094 286.734C190.685 285.509 190.666 284.42 191.241 283.265C191.783 282.23 192.484 281.39 193.262 280.523C193.391 280.375 193.521 280.227 193.655 280.075C193.971 279.715 194.29 279.357 194.609 279Z" fill="#040502" fill-opacity="0.6"/>
<path d="M207.735 267.984C207.967 268.332 207.967 268.332 208.204 268.687C207.987 268.619 207.987 268.619 207.766 268.55C207.132 268.355 206.497 268.169 205.86 267.984C205.7 267.934 205.54 267.885 205.375 267.833C201.657 266.82 197.825 267.601 194.485 269.358C190.972 271.428 189.067 274.673 188.048 278.531C187.697 280.601 187.805 282.549 188.048 284.625C186.717 283.295 186.545 280.777 186.539 278.956C186.606 275.383 188.049 272.001 190.537 269.433C195.252 265.113 202.379 264.136 207.735 267.984Z" fill="#FADF51" fill-opacity="0.6"/>
<path d="M212.188 273.844C213.346 275.002 213.414 277.144 213.462 278.707C213.362 282.641 211.948 286.089 209.165 288.89C206.593 291.31 203.173 292.367 199.692 292.462C197.024 292.365 193.85 291.444 191.819 289.613C191.734 289.514 191.65 289.415 191.562 289.312C192.537 289.449 193.382 289.688 194.302 290.03C197.916 291.15 201.521 290.586 204.89 288.996C208.589 286.936 210.762 283.758 211.983 279.778C212.27 278.587 212.239 277.406 212.217 276.188C212.215 275.961 212.213 275.735 212.21 275.502C212.205 274.949 212.197 274.396 212.188 273.844Z" fill="#FBAE00" fill-opacity="0.6"/>
<path d="M195.312 281.344C196.403 282.577 197.524 283.853 197.422 285.563C197.022 286.54 196.508 287.013 195.547 287.438C194.566 287.605 194.218 287.486 193.364 286.954C192.605 286.124 192.461 285.744 192.5 284.625C192.953 283.61 194.067 281.344 195.312 281.344Z" fill="#27DCFA" fill-opacity="0.6"/>
<path d="M195.782 274.078C196.236 274.327 196.236 274.327 196.485 274.781C196.635 276.185 196.635 276.185 196.206 276.861C195.64 277.213 195.281 277.343 194.61 277.359C193.95 277.008 193.95 277.008 193.438 276.422C193.323 275.601 193.283 275.063 193.687 274.327C194.403 273.934 194.982 273.993 195.782 274.078Z" fill="#050400" fill-opacity="0.6"/>
<path d="M205.624 274.078C206.181 274.327 206.181 274.327 206.562 274.781C206.735 276.163 206.735 276.163 206.269 276.861C205.791 277.169 205.49 277.309 204.921 277.359C204.291 277.169 204.291 277.169 203.749 276.891C203.392 276.176 203.46 275.568 203.515 274.781C204.022 273.909 204.683 273.963 205.624 274.078Z" fill="#030200" fill-opacity="0.6"/>
</g>
<g clip-path="url(#clip2_826_4787)">
<path d="M61.5652 309.969C61.7961 309.969 62.0269 309.968 62.2647 309.968C62.5076 309.969 62.7505 309.97 63.0008 309.971C63.3652 309.969 63.3652 309.969 63.7369 309.968C63.9677 309.968 64.1985 309.969 64.4363 309.969C64.6496 309.969 64.8629 309.969 65.0827 309.97C65.5789 310 65.5789 310 65.8133 310.234C65.8339 310.737 65.8384 311.241 65.8362 311.744C65.8354 312.05 65.8347 312.356 65.8339 312.671C65.8319 312.997 65.83 313.322 65.8279 313.648C65.8268 313.974 65.8257 314.3 65.8247 314.627C65.822 315.428 65.8181 316.23 65.8133 317.031C66.1203 317.029 66.1203 317.029 66.4335 317.028C67.1905 317.024 67.9474 317.021 68.7044 317.018C69.0324 317.017 69.3605 317.016 69.6885 317.014C70.1592 317.011 70.6298 317.01 71.1005 317.008C71.5258 317.007 71.5258 317.007 71.9596 317.005C72.6102 317.031 72.6102 317.031 72.8445 317.266C72.8678 317.646 72.8752 318.027 72.8757 318.408C72.876 318.639 72.8763 318.87 72.8766 319.108C72.8757 319.351 72.8748 319.594 72.8738 319.844C72.8747 320.087 72.8757 320.33 72.8766 320.58C72.8763 320.811 72.876 321.042 72.8757 321.279C72.8754 321.493 72.8751 321.706 72.8749 321.926C72.8445 322.422 72.8445 322.422 72.6102 322.656C72.1073 322.677 71.6038 322.681 71.1005 322.679C70.7946 322.678 70.4887 322.678 70.1735 322.677C69.848 322.675 69.5226 322.673 69.1971 322.671C68.8707 322.67 68.5443 322.669 68.2179 322.668C67.4164 322.665 66.6148 322.661 65.8133 322.656C65.8138 322.87 65.8143 323.084 65.8149 323.304C65.8196 325.315 65.8231 327.326 65.8254 329.337C65.8267 330.37 65.8283 331.404 65.831 332.438C65.8335 333.435 65.8349 334.432 65.8355 335.429C65.836 335.81 65.8368 336.191 65.8381 336.572C65.8398 337.104 65.84 337.636 65.8399 338.168C65.8404 338.472 65.8409 338.775 65.8415 339.088C65.8133 339.766 65.8133 339.766 65.5789 340C65.1986 340.023 64.8173 340.031 64.4363 340.031C64.2055 340.031 63.9747 340.032 63.7369 340.032C63.494 340.031 63.2511 340.03 63.0008 340.029C62.7579 340.03 62.515 340.031 62.2647 340.032C62.0339 340.032 61.8031 340.031 61.5652 340.031C61.3519 340.031 61.1386 340.031 60.9189 340.03C60.4227 340 60.4227 340 60.1883 339.766C60.1662 339.234 60.1608 338.701 60.1617 338.168C60.1617 338.002 60.1616 337.835 60.1616 337.663C60.1617 337.108 60.1636 336.554 60.1654 336C60.1658 335.617 60.1662 335.234 60.1664 334.85C60.1673 333.84 60.1696 332.829 60.1722 331.818C60.1746 330.788 60.1757 329.757 60.1768 328.727C60.1794 326.703 60.1834 324.68 60.1883 322.656C59.9836 322.658 59.779 322.659 59.5681 322.66C58.8111 322.664 58.0542 322.667 57.2972 322.669C56.9692 322.67 56.6411 322.672 56.313 322.674C55.8424 322.677 55.3718 322.678 54.9011 322.679C54.6176 322.68 54.3341 322.682 54.042 322.683C53.3914 322.656 53.3914 322.656 53.157 322.422C53.1338 322.042 53.1264 321.66 53.1259 321.279C53.1256 321.049 53.1253 320.818 53.125 320.58C53.1259 320.337 53.1268 320.094 53.1277 319.844C53.1264 319.479 53.1264 319.479 53.125 319.108C53.1253 318.877 53.1256 318.646 53.1259 318.408C53.1262 318.195 53.1264 317.982 53.1267 317.762C53.157 317.266 53.157 317.266 53.3914 317.031C53.8943 317.011 54.3978 317.006 54.9011 317.008C55.207 317.009 55.5129 317.01 55.8281 317.011C56.1536 317.013 56.479 317.015 56.8045 317.017C57.1309 317.018 57.4573 317.019 57.7837 317.02C58.5852 317.023 59.3867 317.027 60.1883 317.031C60.1871 316.827 60.1858 316.622 60.1846 316.411C60.1806 315.654 60.1776 314.897 60.1754 314.14C60.1742 313.812 60.1726 313.484 60.1706 313.156C60.1678 312.685 60.1666 312.215 60.1654 311.744C60.1642 311.461 60.163 311.177 60.1617 310.885C60.206 309.802 60.5914 309.97 61.5652 309.969Z" fill="#FEDB63" fill-opacity="0.6"/>
<path d="M65.1087 315.625C65.3408 315.625 65.5728 315.625 65.8119 315.625C65.8119 316.089 65.8119 316.553 65.8119 317.031C66.1189 317.029 66.1189 317.029 66.4321 317.028C67.189 317.024 67.946 317.021 68.7029 317.018C69.031 317.017 69.3591 317.016 69.6871 317.014C70.1577 317.011 70.6284 317.01 71.099 317.008C71.5243 317.007 71.5243 317.007 71.9582 317.005C72.6087 317.031 72.6087 317.031 72.8431 317.266C72.8664 317.646 72.8738 318.027 72.8742 318.408C72.8747 318.754 72.8747 318.754 72.8752 319.108C72.8742 319.351 72.8733 319.593 72.8724 319.844C72.8738 320.208 72.8738 320.208 72.8752 320.58C72.8748 320.811 72.8745 321.041 72.8742 321.279C72.874 321.493 72.8737 321.706 72.8734 321.926C72.8431 322.422 72.8431 322.422 72.6087 322.656C72.1059 322.677 71.6023 322.681 71.099 322.679C70.7931 322.678 70.4872 322.678 70.1721 322.677C69.8466 322.675 69.5211 322.673 69.1956 322.671C68.8693 322.67 68.5429 322.669 68.2165 322.668C67.4149 322.665 66.6134 322.661 65.8119 322.656C65.8124 322.87 65.8129 323.084 65.8134 323.304C65.8181 325.315 65.8217 327.326 65.824 329.336C65.8252 330.37 65.8269 331.404 65.8295 332.438C65.8321 333.435 65.8335 334.432 65.8341 335.429C65.8345 335.81 65.8354 336.191 65.8366 336.572C65.8383 337.104 65.8386 337.636 65.8385 338.168C65.839 338.472 65.8395 338.775 65.84 339.088C65.8119 339.766 65.8119 339.766 65.5775 340C65.1972 340.023 64.8159 340.031 64.4349 340.031C64.2041 340.031 63.9733 340.032 63.7354 340.032C63.4925 340.031 63.2496 340.03 62.9994 340.029C62.635 340.031 62.635 340.031 62.2633 340.032C62.0325 340.032 61.8016 340.031 61.5638 340.031C61.3505 340.031 61.1372 340.031 60.9174 340.03C60.4212 340 60.4212 340 60.1869 339.766C60.1648 339.291 60.1593 338.816 60.1603 338.341C60.1603 338.036 60.1603 337.731 60.1603 337.416C60.1615 337.081 60.1627 336.746 60.164 336.41C60.1644 336.069 60.1647 335.728 60.165 335.387C60.1659 334.487 60.1682 333.587 60.1708 332.687C60.1732 331.77 60.1742 330.853 60.1754 329.935C60.1779 328.134 60.1819 326.333 60.1869 324.531C60.4962 324.609 60.8056 324.686 61.1244 324.766C61.1244 329.484 61.1244 334.202 61.1244 339.062C62.3619 339.062 63.5994 339.062 64.8744 339.062C64.8731 338.545 64.8719 338.028 64.8706 337.496C64.8668 335.791 64.8642 334.087 64.8622 332.382C64.861 331.348 64.8593 330.315 64.8567 329.281C64.8541 328.284 64.8527 327.287 64.8521 326.29C64.8517 325.909 64.8508 325.528 64.8496 325.146C64.8479 324.614 64.8476 324.082 64.8478 323.55C64.8472 323.247 64.8467 322.943 64.8462 322.631C64.8744 321.953 64.8744 321.953 65.1087 321.719C65.6116 321.698 66.1152 321.694 66.6184 321.696C66.9243 321.697 67.2302 321.697 67.5454 321.698C67.8709 321.7 68.1963 321.702 68.5218 321.704C68.8482 321.705 69.1746 321.706 69.501 321.707C70.3025 321.71 71.1041 321.714 71.9056 321.719C71.9056 320.481 71.9056 319.244 71.9056 317.969C71.4177 317.971 70.9297 317.974 70.427 317.977C69.9562 317.979 69.4854 317.98 69.0145 317.982C68.6865 317.983 68.3584 317.984 68.0304 317.986C67.5597 317.989 67.0891 317.99 66.6184 317.992C66.3349 317.993 66.0514 317.994 65.7593 317.995C65.1087 317.969 65.1087 317.969 64.8744 317.734C64.8432 317.31 64.8432 317.31 64.8451 316.797C64.8442 316.543 64.8442 316.543 64.8432 316.284C64.8744 315.859 64.8744 315.859 65.1087 315.625Z" fill="#0A0803" fill-opacity="0.6"/>
<path d="M61.5652 309.969C61.7961 309.969 62.0269 309.968 62.2647 309.968C62.5076 309.969 62.7505 309.97 63.0008 309.971C63.3652 309.969 63.3652 309.969 63.7369 309.968C63.9677 309.968 64.1985 309.969 64.4363 309.969C64.6496 309.969 64.8629 309.969 65.0827 309.97C65.5789 310 65.5789 310 65.8133 310.234C65.8336 310.566 65.8384 310.899 65.8362 311.231C65.8354 311.432 65.8347 311.632 65.8339 311.838C65.8309 312.154 65.8309 312.154 65.8279 312.476C65.8269 312.687 65.8258 312.898 65.8247 313.116C65.822 313.64 65.8181 314.164 65.8133 314.688C65.5039 314.61 65.1945 314.533 64.8758 314.453C64.8758 313.293 64.8758 312.133 64.8758 310.938C63.6383 310.938 62.4008 310.938 61.1258 310.938C61.1285 311.425 61.1312 311.913 61.134 312.416C61.1357 312.887 61.1373 313.358 61.1387 313.829C61.1398 314.157 61.1415 314.485 61.1435 314.813C61.1463 315.283 61.1475 315.754 61.1487 316.225C61.1499 316.508 61.1511 316.792 61.1524 317.084C61.1258 317.734 61.1258 317.734 60.8914 317.969C60.3885 317.989 59.885 317.994 59.3817 317.992C59.0758 317.991 58.7699 317.99 58.4547 317.989C58.1293 317.987 57.8038 317.985 57.4783 317.983C57.1519 317.982 56.8256 317.981 56.4992 317.98C55.6976 317.977 54.8961 317.973 54.0945 317.969C54.0945 319.206 54.0945 320.444 54.0945 321.719C54.5825 321.716 55.0704 321.713 55.5731 321.711C56.0439 321.709 56.5148 321.707 56.9856 321.706C57.3137 321.705 57.6417 321.703 57.9698 321.701C58.4404 321.698 58.9111 321.697 59.3817 321.696C59.807 321.694 59.807 321.694 60.2409 321.692C60.8914 321.719 60.8914 321.719 61.1258 321.953C61.1354 322.422 61.1358 322.891 61.1258 323.359C60.6617 323.475 60.6617 323.475 60.1883 323.594C60.1883 323.284 60.1883 322.975 60.1883 322.656C59.9836 322.658 59.779 322.659 59.5681 322.66C58.8111 322.664 58.0542 322.667 57.2972 322.669C56.9692 322.67 56.6411 322.672 56.313 322.674C55.8424 322.677 55.3718 322.678 54.9011 322.679C54.6176 322.68 54.3341 322.682 54.042 322.683C53.3914 322.656 53.3914 322.656 53.157 322.422C53.1338 322.042 53.1264 321.66 53.1259 321.279C53.1256 321.049 53.1253 320.818 53.125 320.58C53.1259 320.337 53.1268 320.094 53.1277 319.844C53.1264 319.479 53.1264 319.479 53.125 319.108C53.1253 318.877 53.1256 318.646 53.1259 318.408C53.1262 318.195 53.1264 317.982 53.1267 317.762C53.157 317.266 53.157 317.266 53.3914 317.031C53.8943 317.011 54.3978 317.006 54.9011 317.008C55.207 317.009 55.5129 317.01 55.8281 317.011C56.1536 317.013 56.479 317.015 56.8045 317.017C57.1309 317.018 57.4573 317.019 57.7837 317.02C58.5852 317.023 59.3867 317.027 60.1883 317.031C60.1871 316.827 60.1858 316.622 60.1846 316.411C60.1806 315.654 60.1776 314.897 60.1754 314.14C60.1742 313.812 60.1726 313.484 60.1706 313.156C60.1678 312.685 60.1666 312.215 60.1654 311.744C60.1642 311.461 60.163 311.177 60.1617 310.885C60.206 309.802 60.5914 309.97 61.5652 309.969Z" fill="#0A0803" fill-opacity="0.6"/>
<path d="M54.0938 320.781C55.0779 320.758 56.062 320.741 57.0463 320.73C57.381 320.725 57.7156 320.719 58.0502 320.711C58.532 320.699 59.0135 320.694 59.4954 320.69C59.785 320.685 60.0747 320.68 60.3731 320.675C61.2958 320.805 61.507 320.982 62.0625 321.719C62.1752 322.49 62.1752 322.49 62.1689 323.417C62.1691 323.587 62.1692 323.756 62.1693 323.93C62.1687 324.488 62.1614 325.046 62.1541 325.604C62.1523 325.992 62.151 326.379 62.15 326.767C62.1465 327.786 62.1373 328.804 62.1269 329.823C62.1173 330.863 62.113 331.903 62.1083 332.943C62.0982 334.983 62.0822 337.023 62.0625 339.062C61.7531 339.062 61.4437 339.062 61.125 339.062C61.0477 334.345 60.9703 329.627 60.8906 324.766C60.7359 324.688 60.5812 324.611 60.4219 324.531C60.4219 324.222 60.4219 323.912 60.4219 323.594C60.5766 323.516 60.7312 323.439 60.8906 323.359C60.8906 322.895 60.8906 322.431 60.8906 321.953C58.6477 321.876 56.4047 321.798 54.0938 321.719C54.0938 321.409 54.0938 321.1 54.0938 320.781Z" fill="#FEC750" fill-opacity="0.6"/>
<path d="M61.125 310.938C61.4344 310.938 61.7437 310.938 62.0625 310.938C62.0625 313.103 62.0625 315.269 62.0625 317.5C61.6758 317.655 61.2891 317.809 60.8906 317.969C60.968 315.648 61.0453 313.328 61.125 310.938Z" fill="#FEC850" fill-opacity="0.6"/>
</g>
<defs>
<linearGradient id="paint0_linear_826_4787" x1="123.5" y1="0" x2="123.5" y2="436" gradientUnits="userSpaceOnUse">
<stop stop-color="#CEFFB3"/>
<stop offset="1" stop-color="#6D7979"/>
</linearGradient>
<linearGradient id="paint1_linear_826_4787" x1="141" y1="227.671" x2="53" y2="227.671" gradientUnits="userSpaceOnUse">
<stop stop-color="#DBDBDB" stop-opacity="0.05"/>
<stop offset="0.5" stop-color="#DBDBDB"/>
</linearGradient>
<linearGradient id="paint2_linear_826_4787" x1="128" y1="235.171" x2="53" y2="235.171" gradientUnits="userSpaceOnUse">
<stop stop-color="#DBDBDB" stop-opacity="0.05"/>
<stop offset="0.5" stop-color="#DBDBDB"/>
</linearGradient>
<linearGradient id="paint3_linear_826_4787" x1="122" y1="242.671" x2="53" y2="242.671" gradientUnits="userSpaceOnUse">
<stop stop-color="#DBDBDB" stop-opacity="0.05"/>
<stop offset="0.5" stop-color="#DBDBDB"/>
</linearGradient>
<linearGradient id="paint4_linear_826_4787" x1="124" y1="251.671" x2="53" y2="251.671" gradientUnits="userSpaceOnUse">
<stop stop-color="#DBDBDB" stop-opacity="0.05"/>
<stop offset="0.5" stop-color="#DBDBDB"/>
</linearGradient>
<linearGradient id="paint5_linear_826_4787" x1="118" y1="259.171" x2="53" y2="259.171" gradientUnits="userSpaceOnUse">
<stop stop-color="#DBDBDB" stop-opacity="0.05"/>
<stop offset="0.5" stop-color="#DBDBDB"/>
</linearGradient>
<linearGradient id="paint6_linear_826_4787" x1="110" y1="266.671" x2="53" y2="266.671" gradientUnits="userSpaceOnUse">
<stop stop-color="#DBDBDB" stop-opacity="0.05"/>
<stop offset="0.5" stop-color="#DBDBDB"/>
</linearGradient>
<linearGradient id="paint7_linear_826_4787" x1="134" y1="275.671" x2="53" y2="275.671" gradientUnits="userSpaceOnUse">
<stop stop-color="#DBDBDB" stop-opacity="0.05"/>
<stop offset="0.5" stop-color="#DBDBDB"/>
</linearGradient>
<linearGradient id="paint8_linear_826_4787" x1="114" y1="283.171" x2="53" y2="283.171" gradientUnits="userSpaceOnUse">
<stop stop-color="#DBDBDB" stop-opacity="0.05"/>
<stop offset="0.5" stop-color="#DBDBDB"/>
</linearGradient>
<linearGradient id="paint9_linear_826_4787" x1="115" y1="290.671" x2="53" y2="290.671" gradientUnits="userSpaceOnUse">
<stop stop-color="#DBDBDB" stop-opacity="0.05"/>
<stop offset="0.5" stop-color="#DBDBDB"/>
</linearGradient>
<linearGradient id="paint10_linear_826_4787" x1="150" y1="344.671" x2="62" y2="344.671" gradientUnits="userSpaceOnUse">
<stop stop-color="#DBDBDB" stop-opacity="0.05"/>
<stop offset="0.5" stop-color="#DBDBDB"/>
</linearGradient>
<linearGradient id="paint11_linear_826_4787" x1="137" y1="352.171" x2="62" y2="352.171" gradientUnits="userSpaceOnUse">
<stop stop-color="#DBDBDB" stop-opacity="0.05"/>
<stop offset="0.5" stop-color="#DBDBDB"/>
</linearGradient>
<linearGradient id="paint12_linear_826_4787" x1="131" y1="359.671" x2="62" y2="359.671" gradientUnits="userSpaceOnUse">
<stop stop-color="#DBDBDB" stop-opacity="0.05"/>
<stop offset="0.5" stop-color="#DBDBDB"/>
</linearGradient>
<linearGradient id="paint13_linear_826_4787" x1="133" y1="368.671" x2="62" y2="368.671" gradientUnits="userSpaceOnUse">
<stop stop-color="#DBDBDB" stop-opacity="0.05"/>
<stop offset="0.5" stop-color="#DBDBDB"/>
</linearGradient>
<linearGradient id="paint14_linear_826_4787" x1="127" y1="376.171" x2="62" y2="376.171" gradientUnits="userSpaceOnUse">
<stop stop-color="#DBDBDB" stop-opacity="0.05"/>
<stop offset="0.5" stop-color="#DBDBDB"/>
</linearGradient>
<linearGradient id="paint15_linear_826_4787" x1="119" y1="383.671" x2="62" y2="383.671" gradientUnits="userSpaceOnUse">
<stop stop-color="#DBDBDB" stop-opacity="0.05"/>
<stop offset="0.5" stop-color="#DBDBDB"/>
</linearGradient>
<linearGradient id="paint16_linear_826_4787" x1="143" y1="392.671" x2="62" y2="392.671" gradientUnits="userSpaceOnUse">
<stop stop-color="#DBDBDB" stop-opacity="0.05"/>
<stop offset="0.5" stop-color="#DBDBDB"/>
</linearGradient>
<linearGradient id="paint17_linear_826_4787" x1="123" y1="400.171" x2="62" y2="400.171" gradientUnits="userSpaceOnUse">
<stop stop-color="#DBDBDB" stop-opacity="0.05"/>
<stop offset="0.5" stop-color="#DBDBDB"/>
</linearGradient>
<linearGradient id="paint18_linear_826_4787" x1="124" y1="407.671" x2="62" y2="407.671" gradientUnits="userSpaceOnUse">
<stop stop-color="#DBDBDB" stop-opacity="0.05"/>
<stop offset="0.5" stop-color="#DBDBDB"/>
</linearGradient>
<linearGradient id="paint19_linear_826_4787" x1="200" y1="206.561" x2="111" y2="206.561" gradientUnits="userSpaceOnUse">
<stop stop-color="#DBDBDB" stop-opacity="0.05"/>
<stop offset="0.5" stop-color="#DBDBDB"/>
</linearGradient>
<linearGradient id="paint20_linear_826_4787" x1="200" y1="303.561" x2="111" y2="303.561" gradientUnits="userSpaceOnUse">
<stop stop-color="#DBDBDB" stop-opacity="0.05"/>
<stop offset="0.5" stop-color="#DBDBDB"/>
</linearGradient>
<linearGradient id="paint21_linear_826_4787" x1="200" y1="316.561" x2="111" y2="316.561" gradientUnits="userSpaceOnUse">
<stop stop-color="#DBDBDB" stop-opacity="0.05"/>
<stop offset="0.5" stop-color="#DBDBDB"/>
</linearGradient>
<clipPath id="clip0_826_4787">
<rect width="30" height="30" fill="white" transform="translate(47 193)"/>
</clipPath>
<clipPath id="clip1_826_4787">
<rect width="30" height="30" fill="white" transform="translate(185 264)"/>
</clipPath>
<clipPath id="clip2_826_4787">
<rect width="30" height="30" fill="white" transform="translate(48 310)"/>
</clipPath>
</defs>
</svg>
