<svg width="44" height="42" viewBox="0 0 44 42" fill="none" xmlns="http://www.w3.org/2000/svg">
<g clip-path="url(#clip0_968_4242)">
<path d="M21.9375 -0.5625C22.7928 -0.586348 23.648 -0.610195 24.5293 -0.634766C30.8271 -0.620354 35.2731 0.741281 40 5C44.1532 9.7976 44.6808 14.7746 44.5625 20.9375C44.5471 22.1317 44.5471 22.1317 44.5315 23.3501C44.3485 28.3866 43.7813 32.3047 40.7773 36.4922C34.6816 41.6635 29.8717 42.6621 22.0625 42.5625C20.7795 42.5983 20.7795 42.5983 19.4707 42.6348C13.1728 42.6204 8.72687 41.2587 3.99996 37C-0.153298 32.2024 -0.680881 27.2254 -0.562537 21.0625C-0.547189 19.8683 -0.547189 19.8683 -0.531531 18.6499C-0.348585 13.6134 0.218587 9.69525 3.22262 5.50781C9.31833 0.336506 14.1282 -0.662093 21.9375 -0.5625Z" fill="#009ADD"/>
<path d="M1.96397e-05 22C1.29236 23.9385 2.52699 25.9173 3.68752 27.9375C6.72514 31.9603 10.156 34.467 15.1272 35.3987C17.4128 35.5719 19.6459 35.6067 21.9375 35.5625C22.7337 35.5515 23.5298 35.5406 24.3501 35.5293C29.4067 35.342 33.5013 34.8805 37.586 31.6445C40.1302 28.6856 41.5321 25.6087 43 22C43.33 22 43.66 22 44 22C44.5212 27.837 43.8349 31.158 40.7774 36.1406C36.8038 40.2975 32.8751 42.1757 27.2227 42.5664C25.5027 42.5861 23.7824 42.5844 22.0625 42.5625C21.2072 42.5863 20.3519 42.6102 19.4707 42.6348C13.1767 42.6204 8.82017 41.1063 4.00002 37C-0.0442553 32.321 -0.415953 27.9276 1.96397e-05 22Z" fill="#007BB0"/>
</g>
<defs>
<clipPath id="clip0_968_4242">
<rect width="44" height="42" fill="white"/>
</clipPath>
</defs>
</svg>
