<svg width="60" height="56" viewBox="0 0 60 56" fill="none" xmlns="http://www.w3.org/2000/svg">
<g clip-path="url(#clip0_968_4235)">
<path d="M29.25 -0.499941C30.8722 -0.54248 30.8723 -0.54248 32.5273 -0.585878C40.5928 -0.605337 47.4552 0.936471 53.614 6.44317C59.1995 12.7499 60.5599 18.6149 60.5 26.7501C60.4942 27.641 60.4885 28.5319 60.4826 29.4498C60.268 37.3452 58.734 42.9684 53.2851 48.8516C45.4856 56.0538 36.6168 56.2558 26.4062 56.1485C18.2489 55.793 11.403 53.2359 5.457 47.5157C-1.50968 39.5888 -0.768084 30.3142 -0.242711 20.334C0.414268 14.0154 3.30452 9.26766 7.93746 5.06256C15.2395 0.14489 20.5725 -0.520334 29.25 -0.499941Z" fill="#019BDD"/>
<path d="M29 8C29.66 8 30.32 8 31 8C31.6715 9.28913 32.3371 10.5814 33 11.875C33.3713 12.5943 33.7425 13.3136 34.125 14.0547C35 16 35 16 35 18C40.445 18.495 40.445 18.495 46 19C45.01 19.8869 44.02 20.7738 43 21.6875C39.0236 26.2053 39.516 30.6366 39.7891 36.4023C39.8587 37.2596 39.9283 38.1168 40 39C37.3265 37.9468 34.7188 36.8655 32.125 35.625C27.5464 34.7093 25.8427 36.4875 22 39C21.34 39 20.68 39 20 39C20.1534 38.215 20.3068 37.4299 20.4648 36.6211C21.5651 30.3904 21.5651 30.3904 19.5078 24.6797C17.746 22.9886 15.9323 21.4889 14 20C14 19.67 14 19.34 14 19C19.445 18.505 19.445 18.505 25 18C25.2887 17.0925 25.5775 16.185 25.875 15.25C26.7653 12.678 27.7149 10.3865 29 8Z" fill="#BECACC"/>
<path d="M4.50686e-05 29C0.293951 29.5891 0.587858 30.1782 0.89067 30.7852C4.97373 38.9369 8.65568 44.1394 17.6499 47.376C22.0433 48.5425 26.4168 48.5124 30.9375 48.5C31.8753 48.5284 32.8131 48.5567 33.7793 48.5859C41.2769 48.6068 46.8919 46.628 52.554 41.6277C55.9948 37.8766 57.4463 33.7431 59 29C59.33 29 59.66 29 60 29C60.6603 36.1307 58.9752 41.0422 55 47C49.8258 52.7283 44.5654 54.9179 37 56C25.6476 56.5663 16.2245 56.1899 7.00005 49C3.07176 45.2209 0.159471 41.2545 -0.113236 35.6875C-0.123706 33.4539 -0.087474 31.2317 4.50686e-05 29Z" fill="#007BB1"/>
</g>
<defs>
<clipPath id="clip0_968_4235">
<rect width="60" height="56" fill="white"/>
</clipPath>
</defs>
</svg>
