<svg width="18" height="18" viewBox="0 0 18 18" fill="none" xmlns="http://www.w3.org/2000/svg">
<g clip-path="url(#clip0_847_4104)">
<path d="M8.9662 3.19044C9.06518 3.18636 9.16415 3.18228 9.26613 3.17808C9.99307 3.1693 10.3897 3.32561 10.9701 3.79689C11.561 4.46929 11.5603 5.0484 11.5326 5.90626C11.463 5.97587 11.463 5.97587 11.392 6.04689C11.3503 6.31589 11.3129 6.58556 11.2777 6.85548C11.1703 7.54742 11.0342 7.91916 10.5482 8.43751C10.5482 8.62314 10.5482 8.80876 10.5482 9.00001C10.6298 9.02394 10.7114 9.04787 10.7954 9.07252C11.6696 9.34372 12.4122 9.61631 12.9389 10.4063C12.9708 10.8543 12.9708 10.8543 12.9663 11.4011C12.9659 11.4972 12.9655 11.5934 12.9651 11.6925C12.9635 11.9991 12.96 12.3057 12.9564 12.6123C12.955 12.8204 12.9537 13.0285 12.9526 13.2366C12.9495 13.7463 12.9446 14.256 12.9389 14.7656C12.7532 14.7656 12.5676 14.7656 12.3764 14.7656C12.3067 13.0254 12.3067 13.0254 12.2357 11.25C11.6671 11.9069 11.6671 11.9069 11.5875 12.637C11.583 12.7617 11.5785 12.8863 11.5738 13.0147C11.5718 13.1429 11.5698 13.2712 11.5678 13.4033C11.5615 13.5998 11.5615 13.5998 11.5551 13.8002C11.5452 14.122 11.5378 14.4437 11.5326 14.7656C11.347 14.7656 11.1614 14.7656 10.9701 14.7656C10.9412 14.2531 10.9239 13.7407 10.9086 13.2276C10.9003 13.0839 10.8921 12.9402 10.8836 12.7922C10.8608 11.774 11.063 11.2459 11.7413 10.4829C11.8117 10.4112 11.882 10.3395 11.9545 10.2656C11.8628 10.2319 11.7711 10.1982 11.6767 10.1635C11.458 10.0831 11.2393 10.0027 11.0206 9.92231C10.6375 9.8316 10.4853 9.8237 10.1264 9.98439C9.67786 10.3543 9.44845 10.564 9.3305 11.1417C9.32829 11.3089 9.32608 11.476 9.32381 11.6483C9.31769 11.9209 9.31769 11.9209 9.31145 12.199C9.31055 12.3895 9.30973 12.58 9.30898 12.7705C9.30572 12.9638 9.30215 13.1571 9.29826 13.3503C9.28999 13.8221 9.28488 14.2938 9.28261 14.7656C9.09698 14.7656 8.91136 14.7656 8.72011 14.7656C8.72027 14.6465 8.72043 14.5274 8.72059 14.4047C8.71919 13.9595 8.71403 13.5147 8.70638 13.0696C8.70383 12.8776 8.70276 12.6856 8.70322 12.4935C8.75055 11.2129 8.75055 11.2129 8.17134 10.1349C7.77556 9.81202 7.77556 9.81202 7.39296 9.84376C7.21459 9.91337 7.21459 9.91337 7.03261 9.98439C6.85568 10.0337 6.67876 10.083 6.49648 10.1338C6.34856 10.1773 6.20064 10.2208 6.04823 10.2656C6.15375 10.3732 6.15375 10.3732 6.2614 10.4829C7.06398 11.3858 7.16202 12.0451 7.09413 13.2276C7.08969 13.3761 7.08525 13.5247 7.08067 13.6777C7.06917 14.0408 7.05307 14.403 7.03261 14.7656C6.84698 14.7656 6.66136 14.7656 6.47011 14.7656C6.46879 14.6841 6.46748 14.6026 6.46613 14.5186C6.45854 14.1467 6.44679 13.7751 6.43495 13.4033C6.43296 13.2751 6.43096 13.1468 6.42891 13.0147C6.42438 12.8901 6.41985 12.7654 6.41518 12.637C6.41223 12.5229 6.40929 12.4087 6.40625 12.2911C6.33233 11.8519 6.33233 11.8519 5.76698 11.25C5.72058 12.4102 5.67417 13.5703 5.62636 14.7656C5.44073 14.7656 5.25511 14.7656 5.06386 14.7656C5.04991 14.1577 5.03972 13.5498 5.03296 12.9417C5.03014 12.7351 5.0263 12.5284 5.02142 12.3218C5.01457 12.024 5.0114 11.7264 5.00893 11.4285C5.00598 11.2496 5.00303 11.0706 5 10.8863C5.07499 10.3226 5.22829 10.1009 5.62636 9.70314C6.00978 9.48066 6.00978 9.48066 6.41737 9.30763C6.5526 9.24871 6.68784 9.1898 6.82716 9.1291C7.17323 9.00001 7.17323 9.00001 7.45448 9.00001C7.38629 8.43739 7.17592 8.05024 6.89034 7.5663C6.41411 6.69666 6.37659 5.74859 6.47011 4.78126C6.90147 3.53259 7.74249 3.20689 8.9662 3.19044ZM7.33144 4.45607C7.09897 4.93392 7.07666 5.37759 7.03261 5.90626C7.26464 5.85986 7.49667 5.81345 7.73573 5.76564C7.65509 6.16884 7.61459 6.30865 7.31386 6.60939C7.49298 7.30959 7.70158 7.73363 8.29823 8.15626C8.78656 8.25585 9.21616 8.25585 9.70448 8.15626C10.2987 7.73538 10.5212 7.31061 10.6889 6.60939C10.6889 6.47017 10.6889 6.33095 10.6889 6.18751C10.5902 6.18389 10.4916 6.18026 10.39 6.17653C9.53937 6.12567 8.69382 6.05445 8.01698 5.48439C7.91701 5.18391 7.91701 5.18391 7.87636 4.92189C8.01268 4.9857 8.149 5.0495 8.28944 5.11525C9.17631 5.49225 10.0152 5.72924 10.9701 5.48439C10.7904 4.78198 10.5771 4.36873 9.98573 3.93751C8.98266 3.66039 8.12268 3.74395 7.33144 4.45607ZM8.15761 8.71876C8.29883 9.42489 8.35415 9.54317 8.86073 9.98439C9.26065 9.80512 9.5832 9.63966 9.84511 9.28126C9.7987 9.09564 9.7523 8.91001 9.70448 8.71876C9.19401 8.71876 8.68355 8.71876 8.15761 8.71876Z" fill="#181A1A"/>
<path d="M3.37586 4.64056C3.97256 5.03312 4.03661 5.52406 4.21961 6.18743C4.31822 6.30635 4.41683 6.42526 4.51844 6.54778C4.94322 7.32656 4.88833 8.13258 4.78211 8.99993C4.63373 9.35191 4.47043 9.54725 4.21961 9.84368C4.10962 10.2273 4.10962 10.2273 4.07898 10.5468C4.2182 10.6396 4.35742 10.7324 4.50086 10.8281C4.50086 11.0137 4.50086 11.1993 4.50086 11.3906C4.30508 11.3775 4.30508 11.3775 4.10535 11.3642C3.66959 11.3495 3.66959 11.3495 3.42265 11.5602C3.17989 11.8869 3.17554 12.0949 3.16327 12.4996C3.15829 12.6315 3.1533 12.7634 3.14817 12.8993C3.14499 13.0366 3.14182 13.1739 3.13855 13.3154C3.13375 13.4543 3.12894 13.5933 3.124 13.7364C3.1124 14.0794 3.10267 14.4224 3.09461 14.7656C2.90898 14.7656 2.72336 14.7656 2.53211 14.7656C2.53014 14.6347 2.53014 14.6347 2.52812 14.5012C2.52057 14.1058 2.50881 13.7106 2.49695 13.3154C2.49496 13.178 2.49296 13.0407 2.49091 12.8993C2.48638 12.7674 2.48184 12.6355 2.47718 12.4996C2.47423 12.3781 2.47128 12.2566 2.46825 12.1314C2.41561 11.7918 2.41561 11.7918 2.13344 11.5514C1.81523 11.34 1.81523 11.34 1.37195 11.5048C1.24433 11.5599 1.11672 11.615 0.985232 11.6718C1.10125 11.7907 1.21726 11.9096 1.33679 12.0322C1.91318 12.8147 1.74181 13.8426 1.68836 14.7656C1.50273 14.7656 1.31711 14.7656 1.12586 14.7656C1.11897 14.6604 1.11208 14.5553 1.10498 14.447C1.09447 14.3085 1.08396 14.17 1.07312 14.0273C1.05844 13.8217 1.05844 13.8217 1.04346 13.612C0.999517 13.1743 0.999517 13.1743 0.703982 12.6562C0.657576 13.3523 0.61117 14.0484 0.563357 14.7656C0.377732 14.7656 0.192107 14.7656 0.000857224 14.7656C-0.0196282 14.2646 -0.032076 13.7638 -0.0430881 13.2626C-0.0489795 13.121 -0.0548709 12.9793 -0.0609409 12.8333C-0.0783419 11.7788 -0.0783419 11.7788 0.326053 11.2324C0.725778 10.9535 1.07689 10.8079 1.54773 10.6874C1.60444 10.1913 1.57381 10.0205 1.27527 9.60638C1.17956 9.49906 1.08385 9.39175 0.985232 9.28118C0.658802 8.62832 0.784384 7.74165 0.844607 7.03118C1.09949 6.56536 1.09949 6.56536 1.40711 6.18743C1.5261 5.86021 1.62334 5.53221 1.71527 5.19646C2.00493 4.49682 2.72832 4.53721 3.37586 4.64056ZM2.67273 5.20306C2.52915 5.34066 2.38858 5.48147 2.25086 5.62493C2.25086 5.67134 2.25086 5.71774 2.25086 5.76556C2.5757 5.76556 2.90054 5.76556 3.23523 5.76556C3.18883 5.62634 3.14242 5.48712 3.09461 5.34368C2.95539 5.29727 2.81617 5.25087 2.67273 5.20306ZM1.82898 6.74993C1.62851 7.10954 1.62851 7.10954 1.54773 7.45306C1.69855 7.42115 1.84937 7.38925 2.00476 7.35638C2.60825 7.30609 2.65672 7.36704 3.09461 7.73431C3.53774 7.83562 3.53774 7.83562 3.93836 7.87493C4.07198 7.55995 4.07198 7.55995 4.07898 7.17181C3.76453 6.76487 3.51054 6.52393 3.03308 6.32806C2.52766 6.32806 2.24719 6.47113 1.82898 6.74993ZM1.64441 8.2177C1.5661 8.29021 1.48779 8.36272 1.40711 8.43743C1.70429 9.09955 1.70429 9.09955 2.25086 9.56243C3.09286 9.66159 3.09286 9.66159 3.79773 9.23723C4.12096 8.88141 4.12096 8.88141 4.07898 8.43743C3.93895 8.40942 3.93895 8.40942 3.79608 8.38085C2.67273 8.15618 2.67273 8.15618 2.2948 8.0639C1.95302 7.97724 1.95302 7.97724 1.64441 8.2177ZM2.25086 10.2656C2.27824 10.5398 2.27824 10.5398 2.39148 10.8281C2.67045 11.0087 2.67045 11.0087 2.95398 11.1093C3.17371 10.9248 3.17371 10.9248 3.37586 10.6874C3.37586 10.5482 3.37586 10.409 3.37586 10.2656C3.00461 10.2656 2.63336 10.2656 2.25086 10.2656Z" fill="#181A1A"/>
<path d="M15.6096 5.20322C16.08 5.42602 16.3584 5.71647 16.594 6.1876C16.6039 6.4511 16.6058 6.71494 16.6028 6.97861C16.6015 7.11965 16.6002 7.26068 16.5989 7.40598C16.5973 7.51438 16.5957 7.62279 16.594 7.73447C16.5012 7.73447 16.4083 7.73447 16.3127 7.73447C16.3258 7.9607 16.3258 7.9607 16.3391 8.1915C16.3108 8.75671 16.2345 8.86611 15.8908 9.28135C15.8908 9.46697 15.8908 9.6526 15.8908 9.84385C16.0069 9.87575 16.1229 9.90766 16.2424 9.94053C16.8637 10.1735 17.69 10.489 18.0002 11.1095C18.0122 11.385 18.0153 11.661 18.014 11.9367C18.0135 12.1008 18.013 12.2649 18.0126 12.4339C18.0108 12.6919 18.0108 12.6919 18.009 12.9552C18.0084 13.1283 18.0077 13.3014 18.0071 13.4798C18.0054 13.9084 18.0031 14.3371 18.0002 14.7657C17.8146 14.7657 17.629 14.7657 17.4377 14.7657C17.3681 13.3039 17.3681 13.3039 17.2971 11.8126C17.0561 12.2946 16.9802 12.4565 16.9576 12.953C16.9522 13.059 16.9467 13.1651 16.9411 13.2743C16.9346 13.4383 16.9346 13.4383 16.928 13.6056C16.9225 13.7171 16.9171 13.8285 16.9115 13.9434C16.8983 14.2175 16.8866 14.4916 16.8752 14.7657C16.6896 14.7657 16.504 14.7657 16.3127 14.7657C16.3004 14.2882 16.293 13.8107 16.2864 13.3331C16.2828 13.1981 16.2793 13.0632 16.2756 12.9241C16.2628 11.6878 16.2628 11.6878 16.7346 11.1095C16.1081 10.831 16.1081 10.831 15.469 10.547C14.9698 11.0461 14.9911 11.1615 14.9751 11.8406C14.9701 12.0106 14.9652 12.1805 14.96 12.3556C14.9569 12.5332 14.9537 12.7107 14.9504 12.8937C14.9456 13.0728 14.9408 13.252 14.9359 13.4367C14.9242 13.8797 14.9145 14.3226 14.9065 14.7657C14.7208 14.7657 14.5352 14.7657 14.344 14.7657C14.3419 14.6529 14.3399 14.5401 14.3378 14.4239C14.3273 13.9137 14.3137 13.4037 14.3 12.8937C14.2969 12.7161 14.2937 12.5385 14.2904 12.3556C14.2854 12.1857 14.2804 12.0157 14.2753 11.8406C14.2716 11.6838 14.2679 11.5269 14.2641 11.3653C14.2355 10.9686 14.2355 10.9686 14.0071 10.7095C13.7481 10.5229 13.5317 10.4603 13.219 10.4063C13.2509 10.2352 13.2828 10.0641 13.3156 9.88779C13.3913 9.30616 13.2608 9.06934 12.9377 8.57822C12.9114 8.1124 12.9114 8.1124 12.9377 7.73447C12.8449 7.73447 12.7521 7.73447 12.6565 7.73447C12.6054 7.01682 12.5745 6.48648 12.9114 5.83604C13.6551 4.98602 14.5489 5.08037 15.6096 5.20322ZM13.5002 6.1876C13.3755 6.55199 13.3755 6.55199 13.3596 6.89072C13.5307 6.86172 13.7018 6.83272 13.8781 6.80283C14.4063 6.73508 14.699 6.81272 15.1877 7.03135C15.6389 7.05491 15.6389 7.05491 16.0315 7.03135C15.9106 6.53705 15.8304 6.25443 15.4338 5.92393C14.6946 5.62152 14.1216 5.67273 13.5002 6.1876ZM13.5002 7.59385C13.5433 8.06729 13.5987 8.37594 13.8694 8.77158C14.3325 9.08844 14.6385 9.06999 15.1877 9.0001C15.469 8.85947 15.469 8.85947 15.6096 8.57822C15.6609 8.29775 15.7082 8.01649 15.7502 7.73447C15.4814 7.65585 15.2117 7.58025 14.9416 7.50596C14.7915 7.46354 14.6414 7.42112 14.4868 7.37742C14.0319 7.30789 13.8745 7.34133 13.5002 7.59385ZM14.0627 9.70322C14.2019 9.88885 14.3412 10.0745 14.4846 10.2657C14.9236 10.0817 14.9236 10.0817 15.1877 9.70322C14.8165 9.70322 14.4452 9.70322 14.0627 9.70322Z" fill="#181A1A"/>
</g>
<defs>
<clipPath id="clip0_847_4104">
<rect width="18" height="18" fill="white"/>
</clipPath>
</defs>
</svg>
