<svg width="20" height="20" viewBox="0 0 20 20" fill="none" xmlns="http://www.w3.org/2000/svg">
<path d="M10 18.2501C10 18.2501 7.23411 17.8751 5.47701 17.8751V17.8751C3.10035 17.8751 1 16.1313 1 13.7547V6.04731C1 4.80311 1.73165 3.60315 2.96697 3.45471V3.45471M10 18.2501C10 18.2501 12.6739 17.8751 14.431 17.8751V17.8751C16.8598 17.8751 19 16.0919 19 13.6631V5.86835C19 4.7248 18.3446 3.62938 17.2092 3.49294V3.49294M10 18.2501V15.997M10 15.997C10 15.997 7.65568 15.6251 6.25 15.6251V15.6251C4.48938 15.6251 2.88702 14.359 2.89992 12.5984L2.96697 3.45471M10 15.997C10 15.997 12.2219 15.6251 13.6276 15.6251V15.6251C15.4584 15.6251 17.1364 14.3411 17.1487 12.5103L17.2092 3.49294M10 15.997V1.375M2.96697 3.45471V3.45471C2.96697 2.25211 3.83045 1.2142 5.02663 1.09C5.5265 1.03809 6.04331 1 6.48348 1C7.86455 1 10 1.375 10 1.375M17.2092 3.49294V3.49294C17.2092 2.26946 16.328 1.21524 15.1108 1.09132C14.5944 1.03874 14.0595 1 13.6046 1C12.1893 1 10 1.375 10 1.375" stroke="#181A1A" stroke-linecap="round" stroke-linejoin="round"/>
</svg>
