<svg width="128" height="128" viewBox="0 0 128 128" fill="none" xmlns="http://www.w3.org/2000/svg">
<g clip-path="url(#clip0_847_4102)">
<path d="M94.6926 16.4843C95.5639 16.7411 96.4352 16.998 97.3329 17.2626C99.1542 17.8039 100.973 18.3522 102.79 18.9071C105.582 19.7553 108.381 20.57 111.183 21.3827C112.957 21.9146 114.732 22.4484 116.505 22.9843C117.343 23.2261 118.182 23.4679 119.046 23.7171C121.374 24.4442 121.374 24.4442 125.001 25.9999C125.728 28.0971 125.728 28.0971 126.001 29.9999C125.217 30.4536 124.434 30.9074 123.626 31.3749C119.906 35.0955 119.652 38.9133 119.001 43.9999C119.778 44.143 120.556 44.2861 121.357 44.4335C123.879 44.9737 125.759 45.7544 128.001 46.9999C128.001 47.9899 128.001 48.9799 128.001 49.9999C126.681 50.3299 125.361 50.6599 124.001 50.9999C124.097 51.6895 124.192 52.3792 124.29 53.0897C125.188 60.7027 125.369 67.4487 121.001 73.9999C121.661 74.9899 122.321 75.9799 123.001 76.9999C122.052 77.6186 121.104 78.2374 120.126 78.8749C115.885 82.3255 115.586 86.8097 115.001 91.9999C115.929 92.1236 116.857 92.2474 117.814 92.3749C121.001 92.9999 121.001 92.9999 124.001 94.9999C124.001 95.9899 124.001 96.9799 124.001 97.9999C115.537 100.097 107.07 102.184 98.5997 104.258C94.6662 105.222 90.7336 106.189 86.8029 107.164C83.0053 108.106 79.2055 109.038 75.4042 109.965C73.9586 110.319 72.5139 110.676 71.0699 111.037C59.5135 113.919 51.4182 114.877 39.9894 111.078C39.0582 110.777 38.1269 110.475 37.1675 110.165C35.21 109.529 33.2544 108.886 31.3007 108.238C28.3174 107.251 25.3271 106.288 22.3351 105.328C20.4278 104.704 18.5208 104.079 16.6144 103.453C15.7248 103.167 14.8351 102.882 13.9185 102.588C8.56062 100.79 4.155 98.934 0.696463 94.2225C-0.333351 90.9306 -0.184329 87.8746 -0.12385 84.4374C-0.114826 83.7651 -0.105803 83.0929 -0.096506 82.4003C-0.0714777 80.6 -0.0357108 78.7999 0.00115021 76.9999C0.00115021 76.0099 0.00115021 75.0199 0.00115021 73.9999C0.18865 71.9374 0.18865 71.9374 1.00115 69.9999C3.89227 68.4782 5.71938 67.9999 9.00115 67.9999C8.22375 61.0044 8.22375 61.0044 4.37615 55.3749C3.5924 54.9211 2.80865 54.4674 2.00115 53.9999C2.31365 52.1249 2.31365 52.1249 3.00115 49.9999C3.99115 49.3399 4.98115 48.6799 6.00115 47.9999C5.52935 47.1414 5.52935 47.1414 5.04803 46.2655C2.78832 41.3751 2.58669 35.9337 3.62615 30.6874C5.19203 26.488 6.31563 25.4235 10.0012 22.9999C13.0028 22.1772 13.0028 22.1772 16.3769 21.7196C18.2799 21.4498 18.2799 21.4498 20.2214 21.1745C21.5997 20.996 22.9781 20.818 24.3566 20.6405C25.783 20.4457 27.2092 20.2496 28.6353 20.0523C31.6223 19.6425 34.6104 19.2435 37.6 18.8529C41.4069 18.3553 45.2108 17.8378 49.0141 17.313C51.9604 16.9075 54.9076 16.5094 57.8552 16.1138C59.2567 15.9254 60.6579 15.7357 62.0589 15.5444C73.6525 13.9722 83.4296 13.0521 94.6926 16.4843ZM10.0012 29.9999C8.18894 34.8324 7.84978 38.1506 8.80974 43.203C11.8695 47.8177 20.2863 49.0682 25.4191 50.4804C26.1988 50.6981 26.9785 50.9158 27.7817 51.1401C29.4173 51.5954 31.0535 52.0482 32.6904 52.4987C35.1939 53.1888 37.6943 53.8897 40.1945 54.5917C41.79 55.0344 43.3857 55.4765 44.9816 55.9179C45.7265 56.1272 46.4713 56.3365 47.2387 56.5522C50.6553 57.485 53.429 57.9999 57.0012 57.9999C57.3312 53.3799 57.6612 48.7599 58.0012 43.9999C51.9719 41.9966 45.9396 40.0031 39.9042 38.0184C37.8519 37.3421 35.8005 36.663 33.7499 35.9813C30.8008 35.0014 27.8486 34.031 24.8957 33.0624C23.9809 32.7562 23.0661 32.4499 22.1237 32.1344C20.8329 31.714 20.8329 31.714 19.516 31.285C18.7633 31.0363 18.0105 30.7876 17.2349 30.5314C14.7581 29.9421 12.5381 29.908 10.0012 29.9999ZM109.817 34.0097C108.736 34.2299 107.655 34.4501 106.541 34.677C104.785 35.0379 104.785 35.0379 102.993 35.4061C101.2 35.7724 101.2 35.7724 99.3698 36.146C95.5382 36.9288 91.7072 37.7143 87.8762 38.4999C85.2837 39.03 82.6913 39.56 80.0988 40.0897C73.7325 41.3911 67.3667 42.6948 61.0012 43.9999C61.0012 48.6199 61.0012 53.2399 61.0012 57.9999C67.5442 57.3476 73.7071 55.9348 80.0637 54.2772C81.6115 53.8798 81.6115 53.8798 83.1906 53.4744C86.462 52.6333 89.7316 51.7855 93.0012 50.9374C95.2289 50.3634 97.4568 49.7898 99.6847 49.2167C105.125 47.8163 110.563 46.4097 116.001 44.9999C116.331 41.0399 116.661 37.0799 117.001 32.9999C114.499 32.9999 112.271 33.5074 109.817 34.0097ZM108.486 55.285C107.626 55.5653 106.765 55.8456 105.879 56.1344C104.964 56.4406 104.049 56.7469 103.107 57.0624C102.159 57.3731 101.212 57.6839 100.236 58.004C97.2178 58.9958 94.2032 59.9977 91.1887 60.9999C89.14 61.675 87.0912 62.3495 85.0422 63.0233C80.0259 64.6744 75.0128 66.3347 70.0012 67.9999C70.3312 72.6199 70.6612 77.2399 71.0012 81.9999C76.5473 81.3368 81.7696 80.1004 87.1457 78.6014C87.9967 78.3658 88.8477 78.1302 89.7245 77.8874C91.511 77.3906 93.2968 76.8912 95.082 76.3895C97.8196 75.6232 100.561 74.8739 103.304 74.1249C105.043 73.6389 106.782 73.152 108.521 72.6639C109.341 72.442 110.162 72.22 111.008 71.9912C115.806 70.6929 115.806 70.6929 119.001 66.9999C120.138 61.9778 119.974 58.757 118.001 53.9999C114.526 53.874 111.783 54.1957 108.486 55.285ZM11.0012 56.9999C11.3312 60.9599 11.6612 64.9199 12.0012 68.9999C19.1895 70.8574 26.3795 72.7087 33.571 74.5541C36.0177 75.1829 38.464 75.8134 40.9098 76.4457C44.4235 77.3537 47.9387 78.2555 51.4543 79.1561C53.0967 79.5827 53.0967 79.5827 54.7722 80.0178C55.793 80.2781 56.8137 80.5384 57.8654 80.8065C58.7625 81.0375 59.6597 81.2684 60.584 81.5064C63.2432 82.1333 63.2432 82.1333 67.0012 81.9999C67.0012 77.3799 67.0012 72.7599 67.0012 67.9999C59.3478 66.4308 51.694 64.8643 44.0397 63.3002C41.4341 62.7674 38.8286 62.2338 36.2233 61.6996C32.4856 60.9333 28.7473 60.1695 25.009 59.4061C23.8381 59.1655 22.6672 58.9249 21.4609 58.677C20.3799 58.4568 19.299 58.2366 18.1852 58.0097C17.2304 57.8142 16.2755 57.6188 15.2917 57.4175C13.0613 56.9401 13.0613 56.9401 11.0012 56.9999ZM6.00115 77.9999C4.79859 80.405 4.73077 82.1284 4.62615 84.8124C4.57717 85.6645 4.52818 86.5165 4.47771 87.3944C5.24916 91.2344 7.00676 92.505 10.0012 94.9999C12.8794 96.2872 15.8356 97.0917 18.8801 97.8944C19.7291 98.1315 20.5782 98.3686 21.453 98.6128C23.2403 99.1086 25.0298 99.5965 26.8212 100.077C29.5626 100.812 32.2967 101.571 35.0304 102.334C36.7716 102.814 38.5131 103.292 40.2551 103.769C41.0718 103.994 41.8886 104.219 42.73 104.451C43.4944 104.655 44.2588 104.859 45.0463 105.069C45.7152 105.25 46.3841 105.43 47.0732 105.616C49.3273 106.13 49.3273 106.13 53.0012 106C53.3312 101.38 53.6612 96.7599 54.0012 91.9999C47.9719 89.9966 41.9396 88.0031 35.9042 86.0184C33.8519 85.3421 31.8005 84.663 29.7499 83.9813C26.8008 83.0014 23.8486 82.031 20.8957 81.0624C19.9809 80.7562 19.0661 80.4499 18.1237 80.1344C16.8329 79.714 16.8329 79.714 15.516 79.285C14.7633 79.0363 14.0105 78.7876 13.2349 78.5314C10.7581 77.9421 8.53812 77.908 6.00115 77.9999ZM104.071 82.3905C103.373 82.5353 102.674 82.68 101.954 82.8292C100.455 83.1399 98.956 83.4516 97.4571 83.764C93.582 84.5717 89.7056 85.3734 85.8293 86.1757C85.0662 86.3338 84.3031 86.4919 83.5169 86.6548C74.6875 88.4825 65.8463 90.2504 57.0012 91.9999C57.0012 96.6199 57.0012 101.24 57.0012 106C63.5442 105.348 69.7071 103.935 76.0637 102.277C77.6115 101.88 77.6115 101.88 79.1906 101.474C82.462 100.633 85.7316 99.7855 89.0012 98.9374C91.2289 98.3634 93.4568 97.7898 95.6847 97.2167C101.125 95.8163 106.563 94.4097 112.001 92.9999C112.331 89.0399 112.661 85.0799 113.001 80.9999C109.936 80.9999 107.07 81.7664 104.071 82.3905Z" fill="black"/>
</g>
<defs>
<clipPath id="clip0_847_4102">
<rect width="128" height="128" fill="white"/>
</clipPath>
</defs>
</svg>
