<svg class="absolute left-[1.1rem] select-none text-gray-700 dark:text-gray-300" xmlns="http://www.w3.org/2000/svg" xmlns:xlink="http://www.w3.org/1999/xlink" aria-hidden="true" role="img" width="1em" height="1em" preserveAspectRatio="xMidYMid meet" viewBox="0 0 11 11"><path fill="currentColor" d="M4.881 4.182c0 .101-.031.2-.087.283a.5.5 0 0 1-.242.18l-.65.217a1.3 1.3 0 0 0-.484.299 1.3 1.3 0 0 0-.298.484l-.222.639a.46.46 0 0 1-.18.242.5.5 0 0 1-.288.092.5.5 0 0 1-.294-.097.5.5 0 0 1-.175-.242l-.211-.644a1.26 1.26 0 0 0-.299-.48 1.14 1.14 0 0 0-.479-.298L.328 4.64a.48.48 0 0 1-.247-.18.515.515 0 0 1 .247-.758l.644-.21a1.28 1.28 0 0 0 .788-.789l.211-.634a.5.5 0 0 1 .165-.242.5.5 0 0 1 .283-.103.5.5 0 0 1 .294.083c.086.058.152.14.19.237l.217.659a1.28 1.28 0 0 0 .788.788l.644.222a.476.476 0 0 1 .237.18.5.5 0 0 1 .092.288"></path><path fill="currentColor" d="M10.031 7.458a.5.5 0 0 1-.098.314.5.5 0 0 1-.267.196l-.881.293c-.272.09-.519.242-.721.443a1.8 1.8 0 0 0-.443.721l-.31.876a.5.5 0 0 1-.185.263.56.56 0 0 1-.319.098.515.515 0 0 1-.515-.366l-.294-.88a1.8 1.8 0 0 0-.443-.722c-.204-.2-.45-.353-.72-.448l-.881-.288a.57.57 0 0 1-.263-.191.56.56 0 0 1-.014-.64.5.5 0 0 1 .271-.194l.886-.294A1.82 1.82 0 0 0 6.01 5.465l.293-.87a.515.515 0 0 1 .49-.377c.11 0 .219.03.314.088a.56.56 0 0 1 .206.263l.298.896a1.82 1.82 0 0 0 1.175 1.174l.875.31a.5.5 0 0 1 .263.195c.07.09.108.2.108.314"></path><path fill="currentColor" d="M7.775 1.684a.5.5 0 0 0 .088-.262.45.45 0 0 0-.088-.263.5.5 0 0 0-.21-.155L7.24.896a.5.5 0 0 1-.165-.103.5.5 0 0 1-.103-.17l-.108-.33a.5.5 0 0 0-.165-.21A.5.5 0 0 0 6.426 0a.5.5 0 0 0-.252.098.5.5 0 0 0-.145.206l-.108.32a.5.5 0 0 1-.103.17.5.5 0 0 1-.17.102L5.334 1a.45.45 0 0 0-.216.155.5.5 0 0 0-.088.262c0 .094.029.186.083.263a.5.5 0 0 0 .216.16l.32.103q.095.03.164.103a.37.37 0 0 1 .103.165l.108.319c.031.09.088.17.165.227a.56.56 0 0 0 .252.077.42.42 0 0 0 .268-.093.5.5 0 0 0 .15-.2l.113-.325a.43.43 0 0 1 .268-.268l.32-.108a.42.42 0 0 0 .215-.155"></path></svg>