<?xml version="1.0" standalone="no"?>
<!DOCTYPE svg PUBLIC "-//W3C//DTD SVG 20010904//EN"
 "http://www.w3.org/TR/2001/REC-SVG-20010904/DTD/svg10.dtd">
<svg version="1.0" xmlns="http://www.w3.org/2000/svg"
 width="64.000000pt" height="64.000000pt" viewBox="0 0 64.000000 64.000000"
 preserveAspectRatio="xMidYMid meet">

<g transform="translate(0.000000,64.000000) scale(0.100000,-0.100000)"
fill="#000000" stroke="none">
<path d="M57 594 c-4 -4 -7 -18 -7 -31 0 -14 -6 -23 -15 -23 -11 0 -15 -11
-15 -40 0 -22 5 -40 10 -40 6 0 10 14 10 30 0 28 2 30 40 30 l40 0 0 -130 c0
-80 4 -130 10 -130 6 0 10 53 10 140 0 115 -3 140 -14 140 -9 0 -16 12 -18 28
-3 26 -34 43 -51 26z m33 -34 c0 -11 -4 -20 -10 -20 -5 0 -10 9 -10 20 0 11 5
20 10 20 6 0 10 -9 10 -20z"/>
<path d="M537 594 c-4 -4 -7 -18 -7 -31 0 -14 -6 -23 -15 -23 -12 0 -15 -13
-15 -55 0 -30 5 -55 10 -55 6 0 10 20 10 45 l0 45 40 0 40 0 0 -150 c0 -93 4
-150 10 -150 6 0 10 60 10 160 0 132 -2 160 -14 160 -9 0 -16 12 -18 28 -3 26
-34 43 -51 26z m33 -34 c0 -11 -4 -20 -10 -20 -5 0 -10 9 -10 20 0 11 5 20 10
20 6 0 10 -9 10 -20z"/>
<path d="M160 500 c0 -6 60 -10 160 -10 100 0 160 4 160 10 0 6 -60 10 -160
10 -100 0 -160 -4 -160 -10z"/>
<path d="M236 448 c-20 -28 -20 -58 -2 -83 12 -17 12 -22 -5 -43 -14 -19 -17
-34 -13 -64 5 -31 3 -42 -12 -53 -17 -13 -13 -14 42 -15 83 0 96 15 60 70 -15
23 -23 46 -19 56 4 12 2 15 -8 12 -24 -8 -22 -37 5 -69 30 -36 26 -49 -15 -49
-23 0 -29 4 -29 23 0 12 -3 32 -6 44 -4 14 1 28 16 43 22 22 22 23 4 56 -29
54 -7 52 52 -7 45 -44 56 -51 64 -39 14 22 12 36 -6 51 -11 9 -14 22 -10 41 6
30 -8 39 -18 12 -10 -26 -7 -47 12 -68 10 -11 1 -8 -22 9 -21 17 -45 44 -53
62 -16 39 -17 40 -37 11z"/>
<path d="M20 270 c0 -141 2 -170 14 -170 9 0 16 -12 18 -27 2 -22 8 -28 28
-28 20 0 26 6 28 28 2 15 9 27 18 27 11 0 14 16 14 70 0 40 -4 70 -10 70 -6 0
-10 -27 -10 -60 l0 -60 -40 0 -40 0 0 160 c0 100 -4 160 -10 160 -6 0 -10 -63
-10 -170z m70 -190 c0 -11 -4 -20 -10 -20 -5 0 -10 9 -10 20 0 11 5 20 10 20
6 0 10 -9 10 -20z"/>
<path d="M386 431 c-3 -4 6 -13 19 -19 30 -14 33 -42 6 -49 -27 -7 -38 -59
-17 -82 9 -10 16 -29 16 -44 0 -24 -3 -23 -49 26 -27 29 -53 49 -57 45 -4 -4
14 -30 39 -57 26 -28 47 -57 47 -66 0 -21 17 -19 30 4 15 29 12 69 -7 103 -18
29 -18 30 10 50 33 24 35 61 5 82 -25 18 -35 20 -42 7z"/>
<path d="M500 255 c0 -128 3 -155 14 -155 9 0 16 -12 18 -27 2 -22 8 -28 28
-28 20 0 26 6 28 28 2 15 9 27 18 27 10 0 14 13 14 50 0 28 -4 50 -10 50 -5 0
-10 -18 -10 -40 l0 -40 -40 0 -40 0 0 145 c0 90 -4 145 -10 145 -6 0 -10 -58
-10 -155z m70 -175 c0 -11 -4 -20 -10 -20 -5 0 -10 9 -10 20 0 11 5 20 10 20
6 0 10 -9 10 -20z"/>
<path d="M160 140 c0 -6 28 -10 65 -10 37 0 65 4 65 10 0 6 -28 10 -65 10 -37
0 -65 -4 -65 -10z"/>
<path d="M310 140 c0 -6 35 -10 85 -10 50 0 85 4 85 10 0 6 -35 10 -85 10 -50
0 -85 -4 -85 -10z"/>
</g>
</svg>
