<svg width="18" height="18" viewBox="0 0 18 18" fill="none" xmlns="http://www.w3.org/2000/svg">
<g clip-path="url(#clip0_847_4111)">
<path d="M2.95169 7.26515e-05C3.41656 0.256972 3.7699 0.549901 4.07669 0.984448C4.17612 1.36952 4.17612 1.36952 4.21732 1.68757C4.41935 1.71313 4.41935 1.71313 4.62546 1.73921C4.71476 1.75053 4.80406 1.76185 4.89606 1.77351C5.09609 1.79851 5.29618 1.82297 5.49633 1.84691C6.03956 1.91231 6.57952 1.98538 7.11935 2.07484C7.22496 2.09091 7.33056 2.10697 7.43937 2.12352C7.64265 2.15452 7.84549 2.18859 8.04766 2.22611C8.44229 2.28306 8.75452 2.31181 9.10445 2.10292C9.31271 1.92798 9.50808 1.73798 9.70169 1.54695C10.2241 1.28576 10.8191 1.34405 11.3892 1.40632C12.07 1.73411 12.4724 2.12927 12.7954 2.81257C12.9032 3.55058 12.8842 4.15607 12.5845 4.84285C12.1334 5.3052 11.7271 5.57821 11.1079 5.7657C10.887 5.75199 10.6664 5.7313 10.4466 5.70472C9.79917 5.69471 9.52061 5.84409 9.0502 6.2848C8.83593 6.50966 8.6254 6.73815 8.41849 6.9698C8.20752 7.19589 7.99622 7.42166 7.78458 7.64711C7.68157 7.75825 7.57856 7.86939 7.47243 7.98391C7.12072 8.34849 6.74727 8.67479 6.36071 9.0015C5.99482 9.32626 5.65125 9.66838 5.30654 10.0155C5.11851 10.2046 5.11851 10.2046 4.92669 10.3974C4.83181 10.4932 4.73694 10.5889 4.63919 10.6876C4.74126 10.6682 4.84333 10.6488 4.94849 10.6288C5.91246 10.446 6.87655 10.2638 7.84081 10.0825C8.33649 9.98928 8.83211 9.89576 9.32761 9.80159C9.80618 9.71065 10.2849 9.62047 10.7637 9.53079C11.0344 9.47989 11.3049 9.42822 11.5755 9.37654C11.8246 9.33009 11.8246 9.33009 12.0787 9.2827C12.2242 9.25522 12.3697 9.22774 12.5196 9.19942C12.9453 9.13939 13.3505 9.13035 13.7798 9.1407C13.7827 9.01888 13.7856 8.89706 13.7886 8.77156C13.9712 8.11417 14.361 7.83876 14.9048 7.4532C15.4272 7.19201 16.0222 7.2503 16.5923 7.31257C17.2731 7.64036 17.6756 8.03552 17.9986 8.71882C18.1064 9.45683 18.0873 10.0623 17.7876 10.7491C17.2598 11.2902 16.6758 11.665 15.9051 11.6796C15.2041 11.8925 14.9847 12.4396 14.6324 13.0518C14.5612 13.1672 14.4901 13.2826 14.4167 13.4015C14.0266 13.9835 14.0266 13.9835 13.9674 14.6469C13.9983 14.7325 14.0292 14.8181 14.0611 14.9063C14.2749 15.5953 14.2879 16.2219 14.0347 16.9014C13.7066 17.4105 13.3361 17.7298 12.7954 18.0001C12.0485 18.0745 11.4352 18.0934 10.7564 17.754C10.1255 17.1862 9.86376 16.7803 9.80716 15.9171C9.81926 15.1844 10.0592 14.7081 10.5542 14.168C10.9776 13.9158 11.1673 13.8925 11.6424 13.8445C12.2465 13.7305 12.4997 13.5813 12.8493 13.0744C12.9825 12.8469 13.111 12.6166 13.2349 12.3839C13.3023 12.2679 13.3698 12.152 13.4392 12.0326C13.8156 11.3999 13.8156 11.3999 13.9204 10.6876C13.8113 10.7087 13.7022 10.7299 13.5898 10.7516C12.5596 10.9511 11.5293 11.1498 10.4988 11.3476C9.96907 11.4494 9.4394 11.5514 8.90985 11.6541C8.39846 11.7533 7.88693 11.8516 7.37529 11.9495C7.18047 11.9869 6.98571 12.0246 6.791 12.0626C6.51751 12.1158 6.24382 12.168 5.97012 12.2202C5.73685 12.2651 5.73685 12.2651 5.49887 12.311C5.06481 12.3745 4.65528 12.3867 4.21732 12.3751C4.21442 12.4969 4.21152 12.6187 4.20853 12.7442C4.02592 13.4016 3.63612 13.677 3.09232 14.0626C2.56995 14.3238 1.97492 14.2655 1.40482 14.2032C0.724028 13.8754 0.32158 13.4802 -0.00143417 12.7969C-0.109221 12.0589 -0.0901809 11.4535 0.209503 10.7667C0.660707 10.3042 1.06687 10.0317 1.68607 9.84382C1.90847 9.85583 2.13056 9.87505 2.35184 9.9004C2.97977 9.91011 3.2549 9.78301 3.71304 9.35548C3.91415 9.1438 4.1115 8.9285 4.30521 8.71003C4.50298 8.49712 4.70109 8.28453 4.89957 8.07228C4.99632 7.96744 5.09308 7.86261 5.19276 7.7546C5.55309 7.38033 5.93758 7.04429 6.33239 6.70719C6.7932 6.30856 7.22843 5.88529 7.66263 5.45808C7.75145 5.37333 7.84028 5.28859 7.93179 5.20128C8.01554 5.1187 8.09929 5.03613 8.18558 4.95106C8.2609 4.87779 8.33622 4.80452 8.41382 4.72903C8.63103 4.47051 8.63103 4.47051 8.57669 3.93757C8.43385 3.92053 8.291 3.90349 8.14383 3.88594C7.08968 3.7582 6.04276 3.61883 4.99789 3.42671C4.63183 3.37401 4.30488 3.34233 3.93607 3.37507C3.56399 3.71199 3.56399 3.71199 3.23294 4.0782C2.41074 4.35227 1.55395 4.35853 0.772003 3.98152C0.303337 3.548 0.0332003 3.18503 -0.0624083 2.54506C-0.0635211 1.68044 -0.064224 1.08104 0.561066 0.421948C1.32439 -0.117869 2.04294 -0.165474 2.95169 7.26515e-05ZM1.82669 1.54695C1.73388 1.63976 1.64107 1.73257 1.54544 1.8282C1.5905 2.19422 1.5905 2.19422 1.68607 2.53132C2.02317 2.62689 2.02317 2.62689 2.38919 2.67195C2.482 2.57914 2.57482 2.48632 2.67044 2.3907C2.62538 2.02468 2.62538 2.02468 2.52982 1.68757C2.19271 1.59201 2.19271 1.59201 1.82669 1.54695ZM10.4048 2.9532C10.0832 3.21178 10.0832 3.21178 10.106 3.60359C10.1118 3.7138 10.1176 3.82402 10.1236 3.93757C10.451 4.1061 10.451 4.1061 10.8267 4.21882C10.9659 4.12601 11.1051 4.0332 11.2486 3.93757C11.3072 3.58601 11.3072 3.58601 11.2486 3.23445C11.1558 3.14164 11.0629 3.04882 10.9673 2.9532C10.7817 2.9532 10.5961 2.9532 10.4048 2.9532ZM15.6079 8.85945C15.2863 9.11803 15.2863 9.11803 15.3091 9.50984C15.3149 9.62005 15.3207 9.73027 15.3267 9.84382C15.6541 10.0123 15.6541 10.0123 16.0298 10.1251C16.169 10.0323 16.3083 9.93945 16.4517 9.84382C16.5103 9.49226 16.5103 9.49226 16.4517 9.1407C16.3589 9.04788 16.2661 8.95507 16.1704 8.85945C15.9848 8.85945 15.7992 8.85945 15.6079 8.85945ZM1.96732 11.3907C1.75849 11.5299 1.75849 11.5299 1.54544 11.6719C1.48685 12.0235 1.48685 12.0235 1.54544 12.3751C1.63825 12.4679 1.73107 12.5607 1.82669 12.6563C2.29171 12.6156 2.29171 12.6156 2.67044 12.3751C2.67616 12.1408 2.67645 11.9062 2.67044 11.6719C2.34299 11.5034 2.34299 11.5034 1.96732 11.3907ZM11.3892 15.6094C11.4299 16.0745 11.4299 16.0745 11.6704 16.4532C12.0161 16.4884 12.0161 16.4884 12.3736 16.4532C12.4664 16.3604 12.5592 16.2676 12.6548 16.1719C12.6141 15.7069 12.6141 15.7069 12.3736 15.3282C11.8165 15.2732 11.8165 15.2732 11.3892 15.6094Z" fill="black"/>
</g>
<defs>
<clipPath id="clip0_847_4111">
<rect width="18" height="18" fill="white"/>
</clipPath>
</defs>
</svg>
